<?xml version="1.0" encoding="UTF-8"?>
<svg xmlns="http://www.w3.org/2000/svg" width="49" height="48" viewBox="0 0 49 48" fill="none">
  <g id="Icon">
    <path id="Vector" d="M11.4062 40.9141H26.6486" stroke="url(#paint0_linear_4063_1042)" stroke-width="3" stroke-linecap="round" stroke-linejoin="round"></path>
    <path id="Vector_2" fill-rule="evenodd" clip-rule="evenodd" d="M38.6094 41.6241C38.6094 41.6241 43.456 40.1569 43.456 36.1113C43.456 32.0637 43.6332 31.7517 43.2426 31.3593C42.8542 30.9667 39.2454 29.7109 38.6094 29.7109C37.9734 29.7109 34.3646 30.9709 33.976 31.3593C33.5856 31.7477 33.7628 32.0637 33.7628 36.1113C33.7628 40.1569 38.6094 41.6241 38.6094 41.6241Z" stroke="url(#paint1_linear_4063_1042)" stroke-width="3" stroke-linecap="round" stroke-linejoin="round"></path>
    <path id="Vector_3" d="M9.40039 25.7886C11.8756 24.7612 16.7617 22.6636 19.2778 21.6166C17.7386 17.8883 16.2305 14.2378 14.6621 10.4394C15.9133 9.99378 17.0555 9.47618 18.2542 9.18818C19.6533 8.8535 20.8578 9.4898 21.8892 10.3908C24.2514 12.4592 26.608 14.5355 28.9178 16.6624C29.5016 17.1994 29.9626 17.25 30.6612 16.9445C32.6674 16.0591 34.6814 15.1757 36.7442 14.4324C39.1278 13.5703 42.5234 13.4808 43.368 16.4892C44.0334 18.8612 41.9884 20.883 39.9762 21.7314C36.9686 22.9998 33.9594 24.2636 30.9454 25.5162" stroke="url(#paint2_linear_4063_1042)" stroke-width="3" stroke-linecap="round" stroke-linejoin="round"></path>
    <path id="Vector_4" d="M8.22266 22.9688C8.40168 23.3967 9.0983 25.0898 9.27928 25.516C11.3108 30.2814 15.1014 31.9587 19.8903 30.0381C21.3566 29.4496 22.821 28.8567 24.2838 28.26" stroke="url(#paint3_linear_4063_1042)" stroke-width="3" stroke-linecap="round" stroke-linejoin="round"></path>
  </g>
  <defs>
    <linearGradient id="paint0_linear_4063_1042" x1="19.0274" y1="40.9141" x2="19.0274" y2="41.9141" gradientUnits="userSpaceOnUse">
      <stop stop-color="#24B6FF"></stop>
      <stop offset="1" stop-color="#0071AA"></stop>
    </linearGradient>
    <linearGradient id="paint1_linear_4063_1042" x1="38.6094" y1="29.7109" x2="38.6094" y2="41.6241" gradientUnits="userSpaceOnUse">
      <stop stop-color="#24B6FF"></stop>
      <stop offset="1" stop-color="#0071AA"></stop>
    </linearGradient>
    <linearGradient id="paint2_linear_4063_1042" x1="26.4483" y1="9.09766" x2="26.4483" y2="25.7886" gradientUnits="userSpaceOnUse">
      <stop stop-color="#24B6FF"></stop>
      <stop offset="1" stop-color="#0071AA"></stop>
    </linearGradient>
    <linearGradient id="paint3_linear_4063_1042" x1="16.2532" y1="22.9688" x2="16.2532" y2="30.817" gradientUnits="userSpaceOnUse">
      <stop stop-color="#24B6FF"></stop>
      <stop offset="1" stop-color="#0071AA"></stop>
    </linearGradient>
  </defs>
</svg>
