<?xml version="1.0" encoding="UTF-8"?>
<svg xmlns="http://www.w3.org/2000/svg" width="48" height="48" viewBox="0 0 48 48" fill="none">
  <g id="Icon">
    <path id="Vector" fill-rule="evenodd" clip-rule="evenodd" d="M25.0248 7.88679C30.1016 7.89847 35.2602 9.55055 38.5936 13.5494C41.884 17.4957 43.5848 23.9678 40.4578 28.4784C38.469 31.3466 35.1064 32.7692 31.7284 33.1466C28.3892 33.5222 27.1886 35.7386 28.6596 39.0252C29.7416 41.446 28.681 43.6098 25.6474 43.8394C14.6005 44.6742 5.2076 34.3298 6.7974 23.345C8.16344 13.9035 15.4139 7.86345 25.0248 7.88679Z" stroke="url(#paint0_linear_4063_2091)" stroke-width="3" stroke-linecap="round" stroke-linejoin="round"></path>
    <path id="Vector_2" d="M18.7738 16.7678V16.8747M19.2067 16.7908C19.2067 17.0312 19.0116 17.2261 18.7712 17.2261C18.5307 17.2261 18.3359 17.0312 18.3359 16.7908C18.3359 16.5504 18.5307 16.3555 18.7712 16.3555C19.0116 16.3555 19.2067 16.5504 19.2067 16.7908Z" stroke="url(#paint1_linear_4063_2091)" stroke-width="3" stroke-linecap="round" stroke-linejoin="round"></path>
    <path id="Vector_3" d="M28.0081 14.5842V14.6911M28.4409 14.6072C28.4409 14.8476 28.2459 15.0425 28.0055 15.0425C27.7651 15.0425 27.5703 14.8476 27.5703 14.6072C27.5703 14.3668 27.7651 14.1719 28.0055 14.1719C28.2459 14.1719 28.4409 14.3668 28.4409 14.6072Z" stroke="url(#paint2_linear_4063_2091)" stroke-width="3" stroke-linecap="round" stroke-linejoin="round"></path>
    <path id="Vector_4" d="M35.0513 21.8382V21.945M35.4841 21.8612C35.4841 22.1016 35.2891 22.2964 35.0487 22.2964C34.8081 22.2964 34.6133 22.1016 34.6133 21.8612C34.6133 21.6206 34.8081 21.4258 35.0487 21.4258C35.2891 21.4258 35.4841 21.6206 35.4841 21.8612Z" stroke="url(#paint3_linear_4063_2091)" stroke-width="3" stroke-linecap="round" stroke-linejoin="round"></path>
    <path id="Vector_5" d="M13.684 24.9749V25.0817M14.1168 24.9979C14.1168 25.2383 13.9217 25.4333 13.6813 25.4333C13.4409 25.4333 13.2461 25.2383 13.2461 24.9979C13.2461 24.7575 13.4409 24.5625 13.6813 24.5625C13.9217 24.5625 14.1168 24.7575 14.1168 24.9979Z" stroke="url(#paint4_linear_4063_2091)" stroke-width="3" stroke-linecap="round" stroke-linejoin="round"></path>
  </g>
  <defs>
    <linearGradient id="paint0_linear_4063_2091" x1="24.3656" y1="7.88672" x2="24.3656" y2="43.8867" gradientUnits="userSpaceOnUse">
      <stop stop-color="#24B6FF"></stop>
      <stop offset="1" stop-color="#0071AA"></stop>
    </linearGradient>
    <linearGradient id="paint1_linear_4063_2091" x1="18.7713" y1="16.3555" x2="18.7713" y2="17.2261" gradientUnits="userSpaceOnUse">
      <stop stop-color="#24B6FF"></stop>
      <stop offset="1" stop-color="#0071AA"></stop>
    </linearGradient>
    <linearGradient id="paint2_linear_4063_2091" x1="28.0056" y1="14.1719" x2="28.0056" y2="15.0425" gradientUnits="userSpaceOnUse">
      <stop stop-color="#24B6FF"></stop>
      <stop offset="1" stop-color="#0071AA"></stop>
    </linearGradient>
    <linearGradient id="paint3_linear_4063_2091" x1="35.0487" y1="21.4258" x2="35.0487" y2="22.2964" gradientUnits="userSpaceOnUse">
      <stop stop-color="#24B6FF"></stop>
      <stop offset="1" stop-color="#0071AA"></stop>
    </linearGradient>
    <linearGradient id="paint4_linear_4063_2091" x1="13.6814" y1="24.5625" x2="13.6814" y2="25.4333" gradientUnits="userSpaceOnUse">
      <stop stop-color="#24B6FF"></stop>
      <stop offset="1" stop-color="#0071AA"></stop>
    </linearGradient>
  </defs>
</svg>
