<?xml version="1.0" encoding="UTF-8"?>
<svg xmlns="http://www.w3.org/2000/svg" width="48" height="48" viewBox="0 0 48 48" fill="none">
  <g id="Icon">
    <path id="Vector" fill-rule="evenodd" clip-rule="evenodd" d="M25.8746 7.625C17.9739 7.625 11.5684 14.0305 11.5684 21.9312C11.5684 22.7598 10.8968 23.4312 10.0684 23.4312C9.23994 23.4312 8.56836 22.7598 8.56836 21.9312C8.56836 12.3737 16.3171 4.625 25.8746 4.625C35.4342 4.625 43.181 12.3738 43.181 21.9312C43.181 27.9064 40.153 33.1734 35.5524 36.2816C34.866 36.7454 33.9336 36.5648 33.4698 35.8784C33.006 35.192 33.1866 34.2594 33.873 33.7958C37.6826 31.2218 40.181 26.8686 40.181 21.9312C40.181 14.0304 33.7772 7.625 25.8746 7.625Z" fill="url(#paint0_linear_4063_2962)"></path>
    <path id="Vector_2" fill-rule="evenodd" clip-rule="evenodd" d="M20.5078 19.026C20.5078 16.8386 22.2816 15.0664 24.4694 15.0664H29.0382C29.8666 15.0664 30.5382 15.738 30.5382 16.5664C30.5382 17.3948 29.8666 18.0664 29.0382 18.0664H24.4694C23.9368 18.0664 23.5078 18.497 23.5078 19.026C23.5078 19.5577 23.9376 19.9875 24.4694 19.9875H27.2812C29.4678 19.9875 31.2406 21.7604 31.2406 23.947C31.2406 26.1348 29.4686 27.9086 27.2812 27.9086H22.7122C21.8838 27.9086 21.2122 27.237 21.2122 26.4086C21.2122 25.5802 21.8838 24.9086 22.7122 24.9086H27.2812C27.8102 24.9086 28.2406 24.4796 28.2406 23.947C28.2406 23.4172 27.8108 22.9876 27.2812 22.9876H24.4694C22.2808 22.9876 20.5078 21.2146 20.5078 19.026Z" fill="url(#paint1_linear_4063_2962)"></path>
    <path id="Vector_3" fill-rule="evenodd" clip-rule="evenodd" d="M25.875 12.9883C26.7034 12.9883 27.375 13.6599 27.375 14.4883V16.5723C27.375 17.4007 26.7034 18.0723 25.875 18.0723C25.0466 18.0723 24.375 17.4007 24.375 16.5723V14.4883C24.375 13.6599 25.0466 12.9883 25.875 12.9883ZM25.875 24.9068C26.7034 24.9068 27.375 25.5782 27.375 26.4068V28.4732C27.375 29.3016 26.7034 29.9732 25.875 29.9732C25.0466 29.9732 24.375 29.3016 24.375 28.4732V26.4068C24.375 25.5782 25.0466 24.9068 25.875 24.9068Z" fill="url(#paint2_linear_4063_2962)"></path>
    <path id="Vector_4" fill-rule="evenodd" clip-rule="evenodd" d="M28.9552 36.4104C29.7514 36.6396 30.211 37.4706 29.982 38.2668L28.7522 42.54C28.642 42.9222 28.3846 43.2452 28.0366 43.4378C27.6884 43.6302 27.278 43.6766 26.8958 43.5666L22.6226 42.3368C21.8266 42.1076 21.3668 41.2766 21.596 40.4804C21.8252 39.6844 22.6562 39.2246 23.4524 39.4538L26.284 40.2688L27.099 37.437C27.328 36.641 28.1592 36.1814 28.9552 36.4104Z" fill="url(#paint3_linear_4063_2962)"></path>
    <path id="Vector_5" fill-rule="evenodd" clip-rule="evenodd" d="M6.53018 26.6784C7.2343 26.242 8.15894 26.4588 8.59542 27.163L12.497 33.4568L21.2566 30.8342C21.925 30.6342 22.6432 30.9212 22.9892 31.527L28.6186 41.379C29.0296 42.0982 28.7798 43.0146 28.0604 43.4256C27.3412 43.8366 26.4248 43.5866 26.0138 42.8674L20.9756 34.05L12.2574 36.66C11.6082 36.8544 10.9093 36.5894 10.5522 36.0134L6.04562 28.7436C5.60912 28.0396 5.82608 27.115 6.53018 26.6784Z" fill="url(#paint4_linear_4063_2962)"></path>
  </g>
  <defs>
    <linearGradient id="paint0_linear_4063_2962" x1="25.8747" y1="4.625" x2="25.8747" y2="36.5388" gradientUnits="userSpaceOnUse">
      <stop stop-color="#24B6FF"></stop>
      <stop offset="1" stop-color="#0071AA"></stop>
    </linearGradient>
    <linearGradient id="paint1_linear_4063_2962" x1="25.8742" y1="15.0664" x2="25.8742" y2="27.9086" gradientUnits="userSpaceOnUse">
      <stop stop-color="#24B6FF"></stop>
      <stop offset="1" stop-color="#0071AA"></stop>
    </linearGradient>
    <linearGradient id="paint2_linear_4063_2962" x1="25.875" y1="12.9883" x2="25.875" y2="29.9732" gradientUnits="userSpaceOnUse">
      <stop stop-color="#24B6FF"></stop>
      <stop offset="1" stop-color="#0071AA"></stop>
    </linearGradient>
    <linearGradient id="paint3_linear_4063_2962" x1="25.789" y1="36.3516" x2="25.789" y2="43.6251" gradientUnits="userSpaceOnUse">
      <stop stop-color="#24B6FF"></stop>
      <stop offset="1" stop-color="#0071AA"></stop>
    </linearGradient>
    <linearGradient id="paint4_linear_4063_2962" x1="17.3184" y1="26.4531" x2="17.3184" y2="43.6235" gradientUnits="userSpaceOnUse">
      <stop stop-color="#24B6FF"></stop>
      <stop offset="1" stop-color="#0071AA"></stop>
    </linearGradient>
  </defs>
</svg>
