<svg width="49" height="48" viewBox="0 0 49 48" fill="none" xmlns="http://www.w3.org/2000/svg">
<g id="Icon">
<path id="Vector" d="M21.3028 26.717H15.1029C13.9719 26.84 12.8278 26.6928 11.7649 26.287C10.9745 25.893 10.3341 25.252 9.94093 24.4612C9.53525 23.3982 9.38781 22.2542 9.51089 21.123V15.1891C9.49063 14.7606 9.51955 14.3311 9.59695 13.9091C9.67614 13.5471 9.81111 13.1997 9.99697 12.8791C10.2151 12.5312 10.4728 12.2097 10.7649 11.9211C12.3649 10.1851 14.4929 7.84712 15.7649 6.34312C16.0817 5.96956 16.499 5.69454 16.9672 5.55064C17.4354 5.40674 17.9349 5.39996 18.4069 5.53112C18.848 5.61776 19.2654 5.79838 19.6305 6.06066C19.9956 6.32294 20.3 6.66076 20.523 7.05114C21.2658 8.77334 21.3228 10.7141 20.6828 12.4771H21.143C22.7522 12.2714 24.387 12.4964 25.8808 13.1291C26.8794 13.7297 27.6128 14.6868 27.9328 15.8071C28.1556 17.4071 27.9486 19.0376 27.333 20.5312L26.801 22.4972C26.639 23.416 26.2948 24.2932 25.789 25.0772C25.3406 25.6696 24.7408 26.1304 24.0528 26.4112C23.1658 26.695 22.2308 26.799 21.3028 26.717ZM17.857 8.5291C16.561 10.0331 14.523 12.2711 13.013 13.9111C12.813 14.1291 12.6249 14.3331 12.5949 14.3851C12.5235 14.6454 12.4952 14.9156 12.5109 15.1851V21.1192C12.4646 21.7878 12.5023 22.4598 12.623 23.1192C12.7281 23.3266 12.897 23.4948 13.1049 23.5992C13.7642 23.7204 14.4362 23.758 15.1049 23.7112H21.305C21.8484 23.7458 22.394 23.7178 22.931 23.6272C23.121 23.5508 23.287 23.4242 23.411 23.261C23.6394 22.766 23.8092 22.2458 23.9168 21.7112L24.445 19.7651C24.8132 18.7563 25.0158 17.6946 25.045 16.6211C24.9352 16.2332 24.6812 15.9019 24.335 15.6951C23.2872 15.4501 22.2068 15.3745 21.135 15.4711H19.1549C18.8557 15.4921 18.5559 15.4367 18.284 15.31C18.012 15.1834 17.7767 14.9897 17.6001 14.7471C17.4236 14.5046 17.3115 14.2211 17.2746 13.9234C17.2376 13.6257 17.277 13.3234 17.3889 13.0451C18.4529 9.7331 18.0189 8.72714 17.9209 8.55914L17.857 8.5291Z" fill="url(#paint0_linear_4063_2975)"/>
<path id="Vector_2" d="M34.8917 42.5248H28.6919C27.7613 42.6084 26.8233 42.5044 25.9337 42.2188C25.2445 41.9386 24.6433 41.4778 24.1937 40.8848C23.6883 40.0992 23.3443 39.2208 23.1819 38.3008L22.6577 36.3628C22.0387 34.861 21.8315 33.2214 22.0577 31.6128C22.3773 30.496 23.1075 29.5414 24.1019 28.9408C25.5979 28.3056 27.2357 28.0792 28.8479 28.2848H29.3077C28.6669 26.5212 28.7249 24.5792 29.4697 22.8568C29.6925 22.4662 29.9971 22.1284 30.3627 21.8668C30.7283 21.605 31.1463 21.4256 31.5879 21.3408C32.0349 21.2118 32.5089 21.2094 32.9573 21.3336C33.4057 21.4578 33.8109 21.7042 34.1279 22.0448C35.6079 23.7768 37.9277 26.3188 39.1937 27.6908C39.4971 27.9932 39.7655 28.3286 39.9939 28.6908C40.1797 29.0106 40.3147 29.3574 40.3939 29.7188C40.4715 30.1402 40.5003 30.569 40.4797 30.9968V36.9288C40.6035 38.0614 40.4553 39.207 40.0477 40.2708C39.6537 41.0612 39.0127 41.7016 38.2219 42.0948C37.1615 42.4994 36.0201 42.6468 34.8917 42.5248ZM28.8439 31.2848C27.7719 31.1882 26.6913 31.2652 25.6439 31.5128C25.3009 31.7206 25.0499 32.0508 24.9419 32.4368C24.9701 33.5104 25.1727 34.5722 25.5419 35.5808L26.0679 37.5208C26.1769 38.0558 26.3467 38.5764 26.5737 39.0728C26.6991 39.2368 26.8663 39.364 27.0577 39.4408C27.5941 39.5316 28.1391 39.5598 28.6819 39.5248H34.8817C35.5505 39.5722 36.2225 39.5344 36.8817 39.4128C37.0909 39.3106 37.2609 39.1428 37.3657 38.9348C37.4883 38.2758 37.5265 37.6036 37.4797 36.9348V31.0028C37.4797 30.7248 37.4797 30.4408 37.4657 30.3748C37.3463 30.145 37.1911 29.9358 37.0057 29.7548C35.7637 28.4068 33.5677 26.0068 32.1377 24.3408L32.0519 24.3748C31.9539 24.5428 31.5177 25.5488 32.5837 28.8608C32.6961 29.1392 32.7357 29.4414 32.6991 29.7392C32.6625 30.037 32.5507 30.3206 32.3743 30.5634C32.1979 30.8062 31.9627 31.0002 31.6909 31.127C31.4189 31.254 31.1191 31.3096 30.8197 31.2888L28.8439 31.2848Z" fill="url(#paint1_linear_4063_2975)"/>
<path id="Vector_3" d="M7 26.2814C6.60218 26.2814 6.22064 26.1234 5.93934 25.8422C5.65802 25.5608 5.5 25.1794 5.5 24.7814V14.9375C5.5 14.5397 5.65802 14.1581 5.93934 13.8768C6.22064 13.5955 6.60218 13.4375 7 13.4375C7.39782 13.4375 7.77936 13.5955 8.06066 13.8768C8.34198 14.1581 8.5 14.5397 8.5 14.9375V24.7836C8.49946 25.181 8.34118 25.562 8.05994 25.8428C7.77868 26.1238 7.39748 26.2814 7 26.2814Z" fill="url(#paint2_linear_4063_2975)"/>
<path id="Vector_4" d="M43 42.0862C42.6022 42.0862 42.2206 41.9282 41.9394 41.6468C41.658 41.3656 41.5 40.984 41.5 40.5862V30.7422C41.5 30.3444 41.658 29.9628 41.9394 29.6816C42.2206 29.4002 42.6022 29.2422 43 29.2422C43.3978 29.2422 43.7794 29.4002 44.0606 29.6816C44.342 29.9628 44.5 30.3444 44.5 30.7422V40.5842C44.5002 40.7814 44.4616 40.9766 44.3864 41.1588C44.311 41.341 44.2008 41.5066 44.0614 41.6462C43.922 41.7856 43.7566 41.8962 43.5744 41.9718C43.3924 42.0474 43.1972 42.0862 43 42.0862Z" fill="url(#paint3_linear_4063_2975)"/>
<path id="Vector_5" d="M39.1694 16.6028C38.8624 16.6031 38.5626 16.5092 38.3108 16.3338C38.0588 16.1583 37.8668 15.9097 37.7606 15.6217C37.6544 15.3336 37.6392 15.0199 37.7168 14.7229C37.7946 14.4259 37.9616 14.1599 38.1954 13.9608L40.2174 12.2348C40.52 11.9762 40.913 11.8485 41.3098 11.8796C41.7066 11.9107 42.0748 12.0982 42.3334 12.4008C42.592 12.7035 42.7198 13.0964 42.6886 13.4932C42.6576 13.89 42.47 14.2582 42.1674 14.5168L40.1434 16.2428C39.8724 16.4759 39.5268 16.6037 39.1694 16.6028Z" fill="url(#paint4_linear_4063_2975)"/>
<path id="Vector_6" d="M8.99752 36.9309C8.6905 36.9311 8.39082 36.8373 8.13888 36.6617C7.88692 36.4863 7.6949 36.2377 7.5887 35.9497C7.4825 35.6617 7.46724 35.3479 7.545 35.0509C7.62276 34.7539 7.78978 34.4879 8.02352 34.2889L10.0455 32.5629C10.3481 32.3043 10.7411 32.1765 11.1379 32.2077C11.5347 32.2387 11.9029 32.4263 12.1615 32.7289C12.42 33.0315 12.5479 33.4243 12.5168 33.8213C12.4857 34.2181 12.2982 34.5863 11.9956 34.8449L9.97152 36.5709C9.70052 36.8037 9.35484 36.9315 8.99752 36.9309Z" fill="url(#paint5_linear_4063_2975)"/>
<path id="Vector_7" d="M34.154 12.9425C33.9142 12.9422 33.678 12.8844 33.4652 12.7739C33.2524 12.6634 33.0692 12.5035 32.9308 12.3076C32.7926 12.1118 32.7032 11.8856 32.6704 11.648C32.6376 11.4105 32.6622 11.1686 32.742 10.9425L33.638 8.4385C33.7786 8.07282 34.0566 7.77664 34.4126 7.61326C34.7686 7.44986 35.1744 7.43226 35.5434 7.56418C35.9122 7.6961 36.2148 7.96712 36.3864 8.31924C36.5582 8.67138 36.5852 9.07666 36.462 9.44852L35.566 11.9525C35.4614 12.2429 35.2696 12.4939 35.0168 12.6711C34.764 12.8483 34.4628 12.9431 34.154 12.9425Z" fill="url(#paint6_linear_4063_2975)"/>
<path id="Vector_8" d="M15.1486 41.363C14.9767 41.3642 14.806 41.3344 14.6446 41.275C14.4589 41.2092 14.2881 41.1074 14.1419 40.9752C13.9957 40.8432 13.877 40.6836 13.7927 40.5056C13.7083 40.3276 13.6598 40.1346 13.6502 39.9378C13.6406 39.7412 13.67 39.5444 13.7366 39.359L14.6307 36.857C14.6948 36.6696 14.7954 36.4968 14.9267 36.3484C15.058 36.2002 15.2175 36.0794 15.3958 35.9932C15.5741 35.907 15.7679 35.857 15.9656 35.846C16.1634 35.8352 16.3613 35.8636 16.548 35.9296C16.7348 35.9958 16.9066 36.0982 17.0534 36.2312C17.2003 36.3642 17.3192 36.5248 17.4035 36.7042C17.4878 36.8834 17.5359 37.0776 17.5446 37.2754C17.5534 37.4734 17.5228 37.671 17.4547 37.857L16.5606 40.361C16.4579 40.6536 16.267 40.9072 16.0141 41.0866C15.7612 41.266 15.4588 41.3626 15.1486 41.363Z" fill="url(#paint7_linear_4063_2975)"/>
</g>
<defs>
<linearGradient id="paint0_linear_4063_2975" x1="18.7443" y1="5.4375" x2="18.7443" y2="26.7591" gradientUnits="userSpaceOnUse">
<stop stop-color="#24B6FF"/>
<stop offset="1" stop-color="#0071AA"/>
</linearGradient>
<linearGradient id="paint1_linear_4063_2975" x1="31.2454" y1="21.2422" x2="31.2454" y2="42.5663" gradientUnits="userSpaceOnUse">
<stop stop-color="#24B6FF"/>
<stop offset="1" stop-color="#0071AA"/>
</linearGradient>
<linearGradient id="paint2_linear_4063_2975" x1="7" y1="13.4375" x2="7" y2="26.2814" gradientUnits="userSpaceOnUse">
<stop stop-color="#24B6FF"/>
<stop offset="1" stop-color="#0071AA"/>
</linearGradient>
<linearGradient id="paint3_linear_4063_2975" x1="43" y1="29.2422" x2="43" y2="42.0862" gradientUnits="userSpaceOnUse">
<stop stop-color="#24B6FF"/>
<stop offset="1" stop-color="#0071AA"/>
</linearGradient>
<linearGradient id="paint4_linear_4063_2975" x1="40.1806" y1="11.875" x2="40.1806" y2="16.6028" gradientUnits="userSpaceOnUse">
<stop stop-color="#24B6FF"/>
<stop offset="1" stop-color="#0071AA"/>
</linearGradient>
<linearGradient id="paint5_linear_4063_2975" x1="10.0087" y1="32.2031" x2="10.0087" y2="36.9309" gradientUnits="userSpaceOnUse">
<stop stop-color="#24B6FF"/>
<stop offset="1" stop-color="#0071AA"/>
</linearGradient>
<linearGradient id="paint6_linear_4063_2975" x1="34.5972" y1="7.47656" x2="34.5972" y2="12.9425" gradientUnits="userSpaceOnUse">
<stop stop-color="#24B6FF"/>
<stop offset="1" stop-color="#0071AA"/>
</linearGradient>
<linearGradient id="paint7_linear_4063_2975" x1="15.5973" y1="35.8438" x2="15.5973" y2="41.363" gradientUnits="userSpaceOnUse">
<stop stop-color="#24B6FF"/>
<stop offset="1" stop-color="#0071AA"/>
</linearGradient>
</defs>
</svg>
