<svg width="196" height="35" viewBox="0 0 196 35" fill="none" xmlns="http://www.w3.org/2000/svg">
<g id="Layer_x0020_1">
<path id="Vector" d="M164.918 11.3605C159.155 11.3605 157.302 13.1993 157.302 17.8041V22.3776C157.302 26.9824 159.155 28.7898 164.918 28.7898H174.386C174.766 28.7898 174.956 28.6012 174.956 28.224V25.5522C174.956 25.175 174.766 24.9864 174.386 24.9864H165.361C162.575 24.9864 161.878 24.1535 161.878 21.4974V18.6685C161.878 15.9968 162.575 15.1795 165.361 15.1795H174.386C174.766 15.1795 174.956 15.0224 174.956 14.6137V11.942C174.956 11.5648 174.766 11.3762 174.386 11.3762H164.918V11.3605ZM151.001 11.3605C150.526 11.3605 150.304 11.6119 150.304 12.0834V28.0983C150.304 28.5697 150.526 28.7898 151.001 28.7898H154.136C154.611 28.7898 154.832 28.5697 154.832 28.0983V12.0834C154.832 11.6119 154.611 11.3605 154.136 11.3605H151.001ZM134.407 11.3605C128.644 11.3605 126.792 13.1993 126.792 17.8041V28.0983C126.792 28.5697 127.045 28.7898 127.52 28.7898H130.655C131.13 28.7898 131.352 28.5697 131.352 28.0983V18.8886C131.352 16.2168 132.096 15.3996 134.835 15.3996H139.949C142.704 15.3996 143.242 16.2325 143.242 18.8886V28.0983C143.242 28.5697 143.464 28.7898 143.939 28.7898H147.074C147.549 28.7898 147.771 28.5697 147.771 28.0983V17.8041C147.771 13.1993 145.918 11.3605 140.155 11.3605H134.376H134.407ZM104.292 6.47275C103.817 6.47275 103.596 6.69277 103.596 7.16426V28.0983C103.596 28.5697 103.817 28.7898 104.292 28.7898H107.427C107.902 28.7898 108.124 28.5697 108.124 28.0983V15.3838H116.468C119.223 15.3838 119.762 16.2168 119.762 18.8728V28.0825C119.762 28.554 119.983 28.774 120.458 28.774H123.593C124.068 28.774 124.29 28.554 124.29 28.0825V17.7884C124.29 13.1836 122.437 11.3448 116.674 11.3448H108.108V7.14854C108.108 6.67706 107.887 6.45703 107.412 6.45703H104.277L104.292 6.47275ZM91.0874 11.3605C85.3241 11.3605 83.4716 13.1993 83.4716 17.8041V22.3776C83.4716 26.9824 85.3241 28.7898 91.0874 28.7898H100.556C100.936 28.7898 101.126 28.6012 101.126 28.224V25.5522C101.126 25.175 100.936 24.9864 100.556 24.9864H91.5308C88.7441 24.9864 88.0474 24.1535 88.0474 21.4974V18.6685C88.0474 15.9968 88.7441 15.1795 91.5308 15.1795H100.556C100.936 15.1795 101.126 15.0224 101.126 14.6137V11.942C101.126 11.5648 100.936 11.3762 100.556 11.3762H91.0874V11.3605ZM69.4908 11.3605C63.7275 11.3605 61.875 13.1993 61.875 17.8041V22.3776C61.875 26.9824 63.7275 28.7898 69.4908 28.7898H79.8933C80.2733 28.7898 80.4633 28.6012 80.4633 28.224V25.5522C80.4633 25.175 80.2733 24.9864 79.8933 24.9864H69.95C67.1633 24.9864 66.435 24.1535 66.435 22.1575V21.3874H79.1966C80.4475 21.3874 81.0175 20.9474 81.0175 19.5801V16.5626C81.0175 12.7121 79.8616 11.3448 75.4758 11.3448H69.4908V11.3605ZM66.4192 17.7098C66.4192 15.6824 67.1475 14.8809 69.9342 14.8809H74.5733C76.0458 14.8809 76.5208 15.3996 76.5208 16.6883V18.0242C76.5208 18.4328 76.3625 18.5585 75.9825 18.5585H66.4192V17.6941V17.7098ZM182.446 11.3605C178.677 11.3605 177.426 13.0736 177.426 15.7139V17.1126C177.426 19.9101 178.836 21.4031 182.414 21.4031H189.761C191.075 21.4031 191.55 21.9061 191.55 22.739V23.6034C191.55 24.6878 191.075 25.1279 189.761 25.1279H177.996C177.616 25.1279 177.426 25.3165 177.426 25.6937V28.2397C177.426 28.6169 177.616 28.8055 177.996 28.8055H190.98C194.764 28.8055 195.999 27.1553 195.999 24.3578V22.5819C195.999 19.8472 194.59 18.3228 191.011 18.3228H183.633C182.319 18.3228 181.876 17.8199 181.876 16.9555V16.484C181.876 15.5567 182.319 15.0538 183.633 15.0538H194.669C195.049 15.0538 195.239 14.8652 195.239 14.488V11.942C195.239 11.5648 195.049 11.3762 194.669 11.3762H182.446V11.3605Z" fill="#495057"/>
<path id="Vector_2" d="M46.1855 22.4913C46.1855 27.0018 47.563 28.8092 52.6772 28.8092H58.8205C59.2322 28.8092 59.3905 28.6206 59.3905 28.2434V25.6345C59.3905 25.2573 59.2322 25.0687 58.8205 25.0687H53.453C51.3472 25.0687 50.7614 24.2358 50.7614 22.4913V15.1204H58.6305C59.0422 15.1204 59.2005 14.9318 59.2005 14.5546V11.9457C59.2005 11.5685 59.0422 11.3799 58.6305 11.3799H50.7614V7.1837C50.7614 6.71221 50.508 6.49219 50.0647 6.49219H46.898C46.4547 6.49219 46.2014 6.71221 46.2014 7.1837C46.2014 13.9417 46.2014 13.7531 46.2014 22.507L46.1855 22.4913Z" fill="#495057"/>
<path id="Vector_3" d="M35.024 16C34.6123 16 34.3906 16.2043 34.3906 16.6286V19.1275C34.3906 19.5361 34.5965 19.7562 35.024 19.7562H39.6631C40.0906 19.7562 40.2965 19.5519 40.2965 19.1275V16.6286C40.2965 16.2043 40.0906 16 39.6631 16H35.024Z" fill="#495057"/>
<path id="Vector_4" d="M34.5636 0.0157162C33.7403 0.0157162 33.3603 0.298608 32.917 0.722946L24.5253 9.08397L24.462 9.14683L24.3986 9.2097L24.3828 9.22542L24.3353 9.28828L24.2878 9.35114L24.272 9.36686L24.2245 9.42973L24.2086 9.44544L24.1611 9.50831L24.1453 9.52402L24.0978 9.58689V9.6026L24.0661 9.66547L24.0503 9.6969L24.0186 9.74405L23.987 9.7912L23.9711 9.80692L23.9395 9.85406L23.9236 9.86978L23.892 9.93264L23.8761 9.94836L23.8445 10.0269V10.0427L23.8286 10.0898L23.8128 10.137L23.797 10.1527L23.7653 10.2155L23.7495 10.247L23.7178 10.3256V10.3413L23.6861 10.4198V10.4356L23.6703 10.5141L23.6545 10.5927L23.6386 10.6242V10.6556L23.6228 10.7342V10.7499L23.607 10.8442V10.8599L23.5911 10.9542V10.9699L23.5753 11.0642V11.0799L23.5595 11.1899L23.5436 11.3L23.5278 11.41L23.512 11.52V11.5357V11.6457V11.6614V11.7714V11.7872V11.8815V11.9758V12.0072V12.0386V12.1329C23.512 12.2901 23.5278 12.4472 23.5436 12.6044V12.6201V12.683L23.5595 12.7458V12.7616L23.5753 12.8559V12.8873L23.5911 12.9973C23.607 13.0759 23.6228 13.1702 23.6386 13.2488C23.6861 13.4688 23.7495 13.6888 23.8128 13.9088L23.8603 14.0346V14.0503C23.892 14.1446 23.9236 14.2232 23.9553 14.3175C24.272 15.1504 24.7628 15.9991 25.4278 16.8006C20.2186 11.4257 15.0253 6.06646 9.81617 0.707229C9.38867 0.267176 8.99283 0 8.1695 0H1.12368C0.205349 0 0.205349 0.864392 0.617015 1.32016C5.82617 6.64796 11.0195 11.9758 16.2128 17.3035L0.284515 33.1141C-0.17465 33.5698 -0.12715 34.4342 0.791181 34.4342H7.47284C8.29617 34.4342 8.67617 34.1513 9.1195 33.727L17.5112 25.366C18.9837 23.9044 18.9837 20.7768 16.8778 17.9951C22.2136 23.48 27.5495 28.965 32.8853 34.4342C33.2495 34.8114 33.6928 35 34.2311 35H41.1186C41.9261 35 42.3536 34.0256 41.7836 33.4441L25.7603 17.1621L25.792 17.1307L41.7203 1.32016C42.1794 0.864392 42.1319 0 41.2136 0H34.532L34.5636 0.0157162Z" fill="#495057"/>
</g>
</svg>
