<svg width="48" height="48" viewBox="0 0 48 48" fill="none" xmlns="http://www.w3.org/2000/svg">
<g id="Icon">
<path id="Vector" d="M16 44C15.4333 44 14.9583 43.8083 14.575 43.425C14.1917 43.0417 14 42.5667 14 42V10C14 9.43333 14.1917 8.95833 14.575 8.575C14.9583 8.19167 15.4333 8 16 8H20V4H28V8H32C32.5667 8 33.0417 8.19167 33.425 8.575C33.8083 8.95833 34 9.43333 34 10V20C33.3 20 32.6167 20.05 31.95 20.15C31.2833 20.25 30.6333 20.4 30 20.6V12H18V40H21.4C21.7667 40.7667 22.1833 41.4833 22.65 42.15C23.1167 42.8167 23.65 43.4333 24.25 44H16ZM32 44L31.4 41C31 40.8333 30.625 40.65 30.275 40.45C29.925 40.25 29.5833 40.0167 29.25 39.75L26.35 40.75L24.35 37.3L26.6 35.3C26.5333 34.8 26.5 34.375 26.5 34.025C26.5 33.675 26.5333 33.25 26.6 32.75L24.35 30.75L26.35 27.3L29.25 28.3C29.5833 28.0333 29.925 27.7917 30.275 27.575C30.625 27.3583 31 27.1667 31.4 27L32 24H36L36.6 27C37 27.1667 37.375 27.35 37.725 27.55C38.075 27.75 38.4167 27.9833 38.75 28.25L41.65 27.25L43.65 30.7L41.4 32.7C41.4667 33.2 41.5 33.625 41.5 33.975C41.5 34.325 41.4667 34.75 41.4 35.25L43.65 37.25L41.65 40.7L38.75 39.75C38.4167 40.0167 38.075 40.25 37.725 40.45C37.375 40.65 37 40.8333 36.6 41L36 44H32ZM34 38C35.1 38 36.0417 37.6083 36.825 36.825C37.6083 36.0417 38 35.1 38 34C38 32.9 37.6083 31.9583 36.825 31.175C36.0417 30.3917 35.1 30 34 30C32.9 30 31.9583 30.3917 31.175 31.175C30.3917 31.9583 30 32.9 30 34C30 35.1 30.3917 36.0417 31.175 36.825C31.9583 37.6083 32.9 38 34 38Z" fill="url(#paint0_linear_4063_4874)"/>
</g>
<defs>
<linearGradient id="paint0_linear_4063_4874" x1="28.825" y1="4" x2="28.825" y2="44" gradientUnits="userSpaceOnUse">
<stop stop-color="#24B6FF"/>
<stop offset="1" stop-color="#0071AA"/>
</linearGradient>
</defs>
</svg>
