<svg width="48" height="48" viewBox="0 0 48 48" fill="none" xmlns="http://www.w3.org/2000/svg">
<g id="Icon">
<path id="Vector" d="M31.3729 42.4924L26.1729 33.6924H19.9998C19.5229 33.6924 19.1216 33.5296 18.7959 33.204C18.4703 32.8783 18.3075 32.477 18.3075 32.0001C18.3075 31.5232 18.4703 31.1219 18.7959 30.7963C19.1216 30.4706 19.5229 30.3078 19.9998 30.3078H26.1729L31.3729 21.5078H32.9959L30.3959 30.3078H36.6536L38.1536 28.3078H39.5767L38.4728 32.0001L39.5767 35.6924H38.1536L36.6536 33.6924H30.3959L32.9959 42.4924H31.3729ZM15.0037 26.4924L17.6037 17.6924H11.3459L9.8459 19.6924H8.42285L9.5267 16.0001L8.42285 12.3078H9.8459L11.3459 14.3078H17.6037L15.0037 5.50781H16.6267L21.8267 14.3078H27.9998C28.4767 14.3078 28.8779 14.4706 29.2036 14.7963C29.5292 15.1219 29.6921 15.5232 29.6921 16.0001C29.6921 16.477 29.5292 16.8783 29.2036 17.204C28.8779 17.5296 28.4767 17.6924 27.9998 17.6924H21.8267L16.6267 26.4924H15.0037Z" fill="url(#paint0_linear_4063_1306)"/>
</g>
<defs>
<linearGradient id="paint0_linear_4063_1306" x1="23.9998" y1="5.50781" x2="23.9998" y2="42.4924" gradientUnits="userSpaceOnUse">
<stop stop-color="#23B4FD"/>
<stop offset="1" stop-color="#057BB6"/>
</linearGradient>
</defs>
</svg>
