<svg width="48" height="48" viewBox="0 0 48 48" fill="none" xmlns="http://www.w3.org/2000/svg">
<g id="Icon">
<path id="Vector" d="M22.5 27.125C23.7833 27.125 24.875 26.675 25.775 25.775C26.675 24.875 27.125 23.7833 27.125 22.5C27.125 21.2167 26.675 20.125 25.775 19.225C24.875 18.325 23.7833 17.875 22.5 17.875C21.2167 17.875 20.125 18.325 19.225 19.225C18.325 20.125 17.875 21.2167 17.875 22.5C17.875 23.7833 18.325 24.875 19.225 25.775C20.125 26.675 21.2167 27.125 22.5 27.125ZM32.15 34.825L26.925 29.6C26.2583 30.05 25.5473 30.375 24.7917 30.575C24.0362 30.775 23.2723 30.875 22.5 30.875C20.1681 30.875 18.1893 30.062 16.5636 28.4359C14.9379 26.8099 14.125 24.8307 14.125 22.4985C14.125 20.1662 14.938 18.1875 16.5641 16.5625C18.1901 14.9375 20.1693 14.125 22.5016 14.125C24.8339 14.125 26.8125 14.9379 28.4375 16.5636C30.0625 18.1893 30.875 20.1681 30.875 22.5C30.875 23.2723 30.7667 24.0362 30.55 24.7917C30.3333 25.5473 30 26.2583 29.55 26.925L34.825 32.2L32.15 34.825ZM10.25 41.5C9.21873 41.5 8.33592 41.1328 7.60155 40.3984C6.86718 39.6641 6.5 38.7813 6.5 37.75V29.85H10.25V37.75H18.15V41.5H10.25ZM29.85 41.5V37.75H37.75V29.85H41.5V37.75C41.5 38.7813 41.1328 39.6641 40.3984 40.3984C39.6641 41.1328 38.7813 41.5 37.75 41.5H29.85ZM6.5 18.15V10.25C6.5 9.21873 6.86718 8.33592 7.60155 7.60155C8.33592 6.86718 9.21873 6.5 10.25 6.5H18.15V10.25H10.25V18.15H6.5ZM37.75 18.15V10.25H29.85V6.5H37.75C38.7813 6.5 39.6641 6.86718 40.3984 7.60155C41.1328 8.33592 41.5 9.21873 41.5 10.25V18.15H37.75Z" fill="url(#paint0_linear_4063_339)"/>
</g>
<defs>
<linearGradient id="paint0_linear_4063_339" x1="24" y1="6.5" x2="24" y2="41.5" gradientUnits="userSpaceOnUse">
<stop stop-color="#24B6FF"/>
<stop offset="1" stop-color="#0071AA"/>
</linearGradient>
</defs>
</svg>
