<svg width="24" height="24" viewBox="0 0 24 24" fill="none" xmlns="http://www.w3.org/2000/svg">
<g id="Icon/Icons36">
<path id="Vector" d="M12 1.5C9.87904 1.50258 7.84567 2.3726 6.34592 3.91922C4.84617 5.46584 4.00251 7.56276 4.00001 9.75C3.99747 11.5374 4.56363 13.2763 5.61164 14.7C5.61164 14.7 5.82983 14.9963 5.86546 15.039L12 22.5L18.1375 15.0353C18.1695 14.9955 18.3884 14.7 18.3884 14.7L18.3891 14.6978C19.4366 13.2747 20.0025 11.5366 20 9.75C19.9975 7.56276 19.1538 5.46584 17.6541 3.91922C16.1544 2.3726 14.121 1.50258 12 1.5ZM12 12.75C11.4246 12.75 10.8622 12.5741 10.3838 12.2444C9.90541 11.9148 9.53254 11.4462 9.31236 10.8981C9.09218 10.3499 9.03457 9.74667 9.14681 9.16473C9.25906 8.58279 9.53613 8.04824 9.94297 7.62868C10.3498 7.20912 10.8682 6.9234 11.4325 6.80764C11.9968 6.69189 12.5817 6.7513 13.1133 6.97836C13.6448 7.20542 14.0992 7.58994 14.4188 8.08329C14.7385 8.57664 14.9091 9.15666 14.9091 9.75C14.9081 10.5453 14.6013 11.3078 14.056 11.8702C13.5106 12.4326 12.7713 12.749 12 12.75Z" fill="url(#paint0_linear_4013_4900)"/>
</g>
<defs>
<linearGradient id="paint0_linear_4013_4900" x1="12" y1="1.5" x2="12" y2="22.5" gradientUnits="userSpaceOnUse">
<stop stop-color="#24B6FF"/>
<stop offset="1" stop-color="#0071AA"/>
</linearGradient>
</defs>
</svg>
