<svg width="27" height="26" viewBox="0 0 27 26" fill="none" xmlns="http://www.w3.org/2000/svg">
<g id="Group 1000001755">
<path id="Vector" d="M23.5596 12.4987H26.2262C26.2262 5.65867 21.0622 0.5 14.2129 0.5V3.16667C19.6289 3.16667 23.5596 7.09067 23.5596 12.4987Z" fill="url(#paint0_linear_4013_4890)"/>
<path id="Vector_2" d="M14.2263 8.50357C17.0303 8.50357 18.2263 9.69957 18.2263 12.5036H20.893C20.893 8.20357 18.5263 5.83691 14.2263 5.83691V8.50357ZM18.789 15.7609C18.5327 15.528 18.1961 15.4039 17.85 15.4145C17.504 15.4252 17.1756 15.57 16.9343 15.8182L13.7436 19.0996C12.9756 18.9529 11.4316 18.4716 9.84229 16.8862C8.25295 15.2956 7.77162 13.7476 7.62895 12.9849L10.9076 9.79291C11.1562 9.55174 11.3011 9.22334 11.3118 8.87718C11.3225 8.53103 11.1981 8.1943 10.965 7.93824L6.03829 2.52091C5.80501 2.26405 5.48079 2.10825 5.13449 2.08659C4.78819 2.06493 4.44708 2.17912 4.18362 2.40491L1.29029 4.88624C1.05977 5.11759 0.92218 5.42551 0.903621 5.75157C0.883621 6.08491 0.502288 13.9809 6.62495 20.1062C11.9663 25.4462 18.657 25.8369 20.4996 25.8369C20.769 25.8369 20.9343 25.8289 20.9783 25.8262C21.3043 25.808 21.6121 25.6698 21.8423 25.4382L24.3223 22.5436C24.5482 22.2803 24.6627 21.9393 24.6412 21.593C24.6198 21.2467 24.4643 20.9224 24.2076 20.6889L18.789 15.7609Z" fill="url(#paint1_linear_4013_4890)"/>
</g>
<defs>
<linearGradient id="paint0_linear_4013_4890" x1="20.2196" y1="0.5" x2="20.2196" y2="12.4987" gradientUnits="userSpaceOnUse">
<stop stop-color="#24B6FF"/>
<stop offset="1" stop-color="#0071AA"/>
</linearGradient>
<linearGradient id="paint1_linear_4013_4890" x1="12.7682" y1="2.08398" x2="12.7682" y2="25.8369" gradientUnits="userSpaceOnUse">
<stop stop-color="#24B6FF"/>
<stop offset="1" stop-color="#0071AA"/>
</linearGradient>
</defs>
</svg>
