<svg width="234" height="54" viewBox="0 0 234 54" fill="none" xmlns="http://www.w3.org/2000/svg">
<g id="Subtract">
<mask id="path-1-inside-1_4006_467" fill="white">
<path fill-rule="evenodd" clip-rule="evenodd" d="M0 0H218.001L234 26.9976V54H16.0003L0.000488669 27.0005L0 27.0007V0Z"/>
</mask>
<path d="M218.001 0L218.862 -0.509804L218.571 -1H218.001V0ZM0 0V-1H-1V0H0ZM234 26.9976H235V26.7236L234.86 26.4878L234 26.9976ZM234 54V55H235V54H234ZM16.0003 54L15.14 54.5098L15.4305 55H16.0003V54ZM0.000488669 27.0005L0.860779 26.4907L0.429379 25.7627L-0.35995 26.0677L0.000488669 27.0005ZM0 27.0007H-1V28.4592L0.360438 27.9335L0 27.0007ZM218.001 -1H0V1H218.001V-1ZM234.86 26.4878L218.862 -0.509804L217.141 0.509804L233.14 27.5074L234.86 26.4878ZM235 54V26.9976H233V54H235ZM16.0003 55H234V53H16.0003V55ZM-0.859802 27.5103L15.14 54.5098L16.8606 53.4902L0.860779 26.4907L-0.859802 27.5103ZM0.360438 27.9335L0.360927 27.9333L-0.35995 26.0677L-0.360438 26.0679L0.360438 27.9335ZM-1 0V27.0007H1V0H-1Z" fill="url(#paint0_linear_4006_467)" mask="url(#path-1-inside-1_4006_467)"/>
</g>
<defs>
<linearGradient id="paint0_linear_4006_467" x1="-1.74344e-06" y1="27" x2="234" y2="27" gradientUnits="userSpaceOnUse">
<stop stop-color="#0071AA"/>
<stop offset="1" stop-color="#24B6FF"/>
</linearGradient>
</defs>
</svg>
