<svg width="88" height="115" viewBox="0 0 88 115" fill="none" xmlns="http://www.w3.org/2000/svg">
<g filter="url(#filter0_d_6205_3497)">
<rect x="4.5" y="0.5" width="79" height="105.422" stroke="black" shape-rendering="crispEdges"/>
<mask id="path-3-inside-1_6205_3497" fill="white">
<path fill-rule="evenodd" clip-rule="evenodd" d="M4 106.422V20.9672L24.9672 0H84V85.2444L83.8942 85.1387L62.7159 106.317L62.8209 106.422H4Z"/>
</mask>
<path d="M4 20.9672L2.58579 19.553L2 20.1388V20.9672H4ZM4 106.422H2V108.422H4V106.422ZM24.9672 0V-2H24.1388L23.553 -1.41421L24.9672 0ZM84 0H86V-2H84V0ZM84 85.2444L82.5858 86.6587L86 90.0729V85.2444H84ZM83.8942 85.1387L85.3084 83.7245L83.8942 82.3102L82.48 83.7245L83.8942 85.1387ZM62.7159 106.317L61.3017 104.903L59.8875 106.317L61.3017 107.731L62.7159 106.317ZM62.8209 106.422V108.422H67.6493L64.2351 105.008L62.8209 106.422ZM2 20.9672V106.422H6V20.9672H2ZM23.553 -1.41421L2.58579 19.553L5.41421 22.3814L26.3814 1.41421L23.553 -1.41421ZM84 -2H24.9672V2H84V-2ZM86 85.2444V0H82V85.2444H86ZM82.48 86.5529L82.5858 86.6587L85.4142 83.8302L85.3084 83.7245L82.48 86.5529ZM64.1301 107.731L85.3084 86.5529L82.48 83.7245L61.3017 104.903L64.1301 107.731ZM64.2351 105.008L64.1301 104.903L61.3017 107.731L61.4067 107.836L64.2351 105.008ZM4 108.422H62.8209V104.422H4V108.422Z" fill="url(#paint0_linear_6205_3497)" mask="url(#path-3-inside-1_6205_3497)"/>
<path fill-rule="evenodd" clip-rule="evenodd" d="M28.6624 40.3944C30.0966 38.8556 32.1348 38 34.5266 38H54.305C56.703 38 58.7423 38.855 60.176 40.3949C61.6002 41.9247 62.3333 44.0289 62.3333 46.3743V58.2122C62.3333 60.5569 61.6 62.6607 60.1755 64.1902C58.7417 65.7299 56.7018 66.5847 54.3032 66.5847H34.5266C32.1293 66.5847 30.0905 65.7297 28.6572 64.19C27.2333 62.6605 26.5 60.5569 26.5 58.2122V46.3743C26.5 44.0273 27.2373 41.9234 28.6624 40.3944ZM30.4912 42.0989C29.569 43.0883 29 44.5465 29 46.3743V58.2122C29 60.0405 29.5667 61.498 30.487 62.4865C31.3978 63.465 32.7472 64.0847 34.5266 64.0847H54.3032C56.0847 64.0847 57.4348 63.4647 58.346 62.4864C59.2667 61.4979 59.8333 60.0405 59.8333 58.2122V46.3743C59.8333 44.545 59.2665 43.087 58.3462 42.0984C57.4352 41.1198 56.0853 40.5 54.305 40.5H34.5266C32.7544 40.5 31.4043 41.1192 30.4912 42.0989Z" fill="#0496DF"/>
<path fill-rule="evenodd" clip-rule="evenodd" d="M31.4512 49.25C31.4512 48.5597 32.0108 48 32.7012 48H35.1642C37.3609 48 39.1422 49.7813 39.1422 51.978C39.1422 54.1734 37.3604 55.954 35.1642 55.954H33.9512V57.3887C33.9512 58.0792 33.3915 58.6387 32.7012 58.6387C32.0108 58.6387 31.4512 58.0792 31.4512 57.3887V49.25ZM33.9512 53.454H35.1642C35.9807 53.454 36.6422 52.7915 36.6422 51.978C36.6422 51.162 35.9802 50.5 35.1642 50.5H33.9512V53.454Z" fill="#0496DF"/>
<path fill-rule="evenodd" clip-rule="evenodd" d="M40.5488 49.25C40.5488 48.5596 41.1085 48 41.7988 48H43.8385C45.2498 48 46.606 48.5596 47.6052 49.5607C48.6065 50.5602 49.166 51.9165 49.166 53.3293C49.166 54.7407 48.6063 56.0967 47.6052 57.096C46.606 58.0972 45.2498 58.6567 43.8385 58.6567H41.7988C41.1085 58.6567 40.5488 58.0972 40.5488 57.4067V49.25ZM43.0488 50.5V56.1567H43.8385C44.5888 56.1567 45.3078 55.8592 45.8363 55.3293L45.8385 55.3272C46.3683 54.7987 46.666 54.0797 46.666 53.3293C46.666 52.5768 46.368 51.8578 45.8385 51.3295L45.8363 51.3273C45.3078 50.7977 44.5888 50.5 43.8385 50.5H43.0488Z" fill="#0496DF"/>
<path fill-rule="evenodd" clip-rule="evenodd" d="M50.4648 49.25C50.4648 48.5596 51.0245 48 51.7148 48H56.1328C56.8232 48 57.3828 48.5596 57.3828 49.25C57.3828 49.9403 56.8232 50.5 56.1328 50.5H52.9648V52.7578H55.4537C56.144 52.7578 56.7037 53.3175 56.7037 54.0078C56.7037 54.6982 56.144 55.2578 55.4537 55.2578H52.9648V57.4067C52.9648 58.0972 52.4052 58.6567 51.7148 58.6567C51.0245 58.6567 50.4648 58.0972 50.4648 57.4067V49.25Z" fill="#0496DF"/>
</g>
<defs>
<filter id="filter0_d_6205_3497" x="0" y="0" width="88" height="114.422" filterUnits="userSpaceOnUse" color-interpolation-filters="sRGB">
<feFlood flood-opacity="0" result="BackgroundImageFix"/>
<feColorMatrix in="SourceAlpha" type="matrix" values="0 0 0 0 0 0 0 0 0 0 0 0 0 0 0 0 0 0 127 0" result="hardAlpha"/>
<feOffset dy="4"/>
<feGaussianBlur stdDeviation="2"/>
<feComposite in2="hardAlpha" operator="out"/>
<feColorMatrix type="matrix" values="0 0 0 0 0 0 0 0 0 0 0 0 0 0 0 0 0 0 0.25 0"/>
<feBlend mode="normal" in2="BackgroundImageFix" result="effect1_dropShadow_6205_3497"/>
<feBlend mode="normal" in="SourceGraphic" in2="effect1_dropShadow_6205_3497" result="shape"/>
</filter>
<linearGradient id="paint0_linear_6205_3497" x1="44" y1="0" x2="44" y2="106.422" gradientUnits="userSpaceOnUse">
<stop stop-color="#24B6FF"/>
<stop offset="1" stop-color="#0071AA"/>
</linearGradient>
</defs>
</svg>
