<svg width="80" height="107" viewBox="0 0 80 107" fill="none" xmlns="http://www.w3.org/2000/svg">
<path fill-rule="evenodd" clip-rule="evenodd" d="M0 106.688V21.2329L20.9672 0.265625H80V85.5101L79.8942 85.4043L58.7159 106.583L58.8209 106.688H0Z" fill="#0071AA"/>
<path fill-rule="evenodd" clip-rule="evenodd" d="M24.6624 40.66C26.0966 39.1212 28.1348 38.2656 30.5266 38.2656H50.305C52.703 38.2656 54.7423 39.1206 56.176 40.6605C57.6002 42.1903 58.3333 44.2945 58.3333 46.64V58.4778C58.3333 60.8225 57.6 62.9263 56.1755 64.4558C54.7417 65.9955 52.7018 66.8503 50.3032 66.8503H30.5266C28.1293 66.8503 26.0905 65.9953 24.6572 64.4557C23.2333 62.9262 22.5 60.8225 22.5 58.4778V46.64C22.5 44.293 23.2373 42.189 24.6624 40.66ZM26.4912 42.3645C25.569 43.354 25 44.8122 25 46.64V58.4778C25 60.3062 25.5667 61.7637 26.487 62.7522C27.3978 63.7307 28.7472 64.3503 30.5266 64.3503H50.3032C52.0847 64.3503 53.4348 63.7303 54.346 62.752C55.2667 61.7635 55.8333 60.3062 55.8333 58.4778V46.64C55.8333 44.8106 55.2665 43.3526 54.3462 42.364C53.4352 41.3854 52.0853 40.7656 50.305 40.7656H30.5266C28.7544 40.7656 27.4043 41.3848 26.4912 42.3645Z" fill="white"/>
<path fill-rule="evenodd" clip-rule="evenodd" d="M27.4512 49.5156C27.4512 48.8253 28.0108 48.2656 28.7012 48.2656H31.1642C33.3609 48.2656 35.1422 50.0469 35.1422 52.2436C35.1422 54.439 33.3604 56.2196 31.1642 56.2196H29.9512V57.6543C29.9512 58.3448 29.3915 58.9043 28.7012 58.9043C28.0108 58.9043 27.4512 58.3448 27.4512 57.6543V49.5156ZM29.9512 53.7196H31.1642C31.9807 53.7196 32.6422 53.0571 32.6422 52.2436C32.6422 51.4276 31.9802 50.7656 31.1642 50.7656H29.9512V53.7196Z" fill="white"/>
<path fill-rule="evenodd" clip-rule="evenodd" d="M36.5488 49.5156C36.5488 48.8253 37.1085 48.2656 37.7988 48.2656H39.8385C41.2498 48.2656 42.606 48.8252 43.6052 49.8263C44.6065 50.8258 45.166 52.1821 45.166 53.595C45.166 55.0063 44.6063 56.3623 43.6052 57.3616C42.606 58.3628 41.2498 58.9223 39.8385 58.9223H37.7988C37.1085 58.9223 36.5488 58.3628 36.5488 57.6723V49.5156ZM39.0488 50.7656V56.4223H39.8385C40.5888 56.4223 41.3078 56.1248 41.8363 55.595L41.8385 55.5928C42.3683 55.0643 42.666 54.3453 42.666 53.595C42.666 52.8425 42.368 52.1235 41.8385 51.5951L41.8363 51.593C41.3078 51.0633 40.5888 50.7656 39.8385 50.7656H39.0488Z" fill="white"/>
<path fill-rule="evenodd" clip-rule="evenodd" d="M46.4648 49.5156C46.4648 48.8253 47.0245 48.2656 47.7148 48.2656H52.1328C52.8232 48.2656 53.3828 48.8253 53.3828 49.5156C53.3828 50.206 52.8232 50.7656 52.1328 50.7656H48.9648V53.0235H51.4537C52.144 53.0235 52.7037 53.5831 52.7037 54.2735C52.7037 54.9638 52.144 55.5235 51.4537 55.5235H48.9648V57.6723C48.9648 58.3628 48.4052 58.9223 47.7148 58.9223C47.0245 58.9223 46.4648 58.3628 46.4648 57.6723V49.5156Z" fill="white"/>
</svg>
