<svg width="49" height="48" viewBox="0 0 49 48" fill="none" xmlns="http://www.w3.org/2000/svg">
<g id="Icon">
<path id="Vector" fill-rule="evenodd" clip-rule="evenodd" d="M26.3746 7.625C18.4739 7.625 12.0684 14.0305 12.0684 21.9312C12.0684 22.7598 11.3968 23.4312 10.5684 23.4312C9.73994 23.4312 9.06836 22.7598 9.06836 21.9312C9.06836 12.3737 16.8171 4.625 26.3746 4.625C35.9342 4.625 43.681 12.3738 43.681 21.9312C43.681 27.9064 40.653 33.1734 36.0524 36.2816C35.366 36.7454 34.4336 36.5648 33.9698 35.8784C33.506 35.192 33.6866 34.2594 34.373 33.7958C38.1826 31.2218 40.681 26.8686 40.681 21.9312C40.681 14.0304 34.2772 7.625 26.3746 7.625Z" fill="url(#paint0_linear_4063_2065)"/>
<path id="Vector_2" fill-rule="evenodd" clip-rule="evenodd" d="M21.0078 19.026C21.0078 16.8386 22.7816 15.0664 24.9694 15.0664H29.5382C30.3666 15.0664 31.0382 15.738 31.0382 16.5664C31.0382 17.3948 30.3666 18.0664 29.5382 18.0664H24.9694C24.4368 18.0664 24.0078 18.497 24.0078 19.026C24.0078 19.5577 24.4376 19.9875 24.9694 19.9875H27.7812C29.9678 19.9875 31.7406 21.7604 31.7406 23.947C31.7406 26.1348 29.9686 27.9086 27.7812 27.9086H23.2122C22.3838 27.9086 21.7122 27.237 21.7122 26.4086C21.7122 25.5802 22.3838 24.9086 23.2122 24.9086H27.7812C28.3102 24.9086 28.7406 24.4796 28.7406 23.947C28.7406 23.4172 28.3108 22.9876 27.7812 22.9876H24.9694C22.7808 22.9876 21.0078 21.2146 21.0078 19.026Z" fill="url(#paint1_linear_4063_2065)"/>
<path id="Vector_3" fill-rule="evenodd" clip-rule="evenodd" d="M26.375 12.9883C27.2034 12.9883 27.875 13.6599 27.875 14.4883V16.5723C27.875 17.4007 27.2034 18.0723 26.375 18.0723C25.5466 18.0723 24.875 17.4007 24.875 16.5723V14.4883C24.875 13.6599 25.5466 12.9883 26.375 12.9883ZM26.375 24.9068C27.2034 24.9068 27.875 25.5782 27.875 26.4068V28.4732C27.875 29.3016 27.2034 29.9732 26.375 29.9732C25.5466 29.9732 24.875 29.3016 24.875 28.4732V26.4068C24.875 25.5782 25.5466 24.9068 26.375 24.9068Z" fill="url(#paint2_linear_4063_2065)"/>
<path id="Vector_4" fill-rule="evenodd" clip-rule="evenodd" d="M29.4552 36.4104C30.2514 36.6396 30.711 37.4706 30.482 38.2668L29.2522 42.54C29.142 42.9222 28.8846 43.2452 28.5366 43.4378C28.1884 43.6302 27.778 43.6766 27.3958 43.5666L23.1226 42.3368C22.3266 42.1076 21.8668 41.2766 22.096 40.4804C22.3252 39.6844 23.1562 39.2246 23.9524 39.4538L26.784 40.2688L27.599 37.437C27.828 36.641 28.6592 36.1814 29.4552 36.4104Z" fill="url(#paint3_linear_4063_2065)"/>
<path id="Vector_5" fill-rule="evenodd" clip-rule="evenodd" d="M7.03018 26.6784C7.7343 26.242 8.65894 26.4588 9.09542 27.163L12.997 33.4568L21.7566 30.8342C22.425 30.6342 23.1432 30.9212 23.4892 31.527L29.1186 41.379C29.5296 42.0982 29.2798 43.0146 28.5604 43.4256C27.8412 43.8366 26.9248 43.5866 26.5138 42.8674L21.4756 34.05L12.7574 36.66C12.1082 36.8544 11.4093 36.5894 11.0522 36.0134L6.54562 28.7436C6.10912 28.0396 6.32608 27.115 7.03018 26.6784Z" fill="url(#paint4_linear_4063_2065)"/>
</g>
<defs>
<linearGradient id="paint0_linear_4063_2065" x1="26.3747" y1="4.625" x2="26.3747" y2="36.5388" gradientUnits="userSpaceOnUse">
<stop stop-color="#24B6FF"/>
<stop offset="1" stop-color="#0071AA"/>
</linearGradient>
<linearGradient id="paint1_linear_4063_2065" x1="26.3742" y1="15.0664" x2="26.3742" y2="27.9086" gradientUnits="userSpaceOnUse">
<stop stop-color="#24B6FF"/>
<stop offset="1" stop-color="#0071AA"/>
</linearGradient>
<linearGradient id="paint2_linear_4063_2065" x1="26.375" y1="12.9883" x2="26.375" y2="29.9732" gradientUnits="userSpaceOnUse">
<stop stop-color="#24B6FF"/>
<stop offset="1" stop-color="#0071AA"/>
</linearGradient>
<linearGradient id="paint3_linear_4063_2065" x1="26.289" y1="36.3516" x2="26.289" y2="43.6251" gradientUnits="userSpaceOnUse">
<stop stop-color="#24B6FF"/>
<stop offset="1" stop-color="#0071AA"/>
</linearGradient>
<linearGradient id="paint4_linear_4063_2065" x1="17.8184" y1="26.4531" x2="17.8184" y2="43.6235" gradientUnits="userSpaceOnUse">
<stop stop-color="#24B6FF"/>
<stop offset="1" stop-color="#0071AA"/>
</linearGradient>
</defs>
</svg>
