<svg width="24" height="24" viewBox="0 0 24 24" fill="none" xmlns="http://www.w3.org/2000/svg">
<g id="Icon">
<path id="Vector" d="M18.5271 2.66992H4.81278C3.62992 2.66992 2.66992 3.62992 2.66992 4.81278V18.5271C2.66992 19.7099 3.62992 20.6699 4.81278 20.6699H18.5271C19.7099 20.6699 20.6699 19.7099 20.6699 18.5271V4.81278C20.6699 3.62992 19.7099 2.66992 18.5271 2.66992ZM16.8128 9.09849H15.9556C15.0385 9.09849 14.6699 9.31278 14.6699 9.95564V11.2414H16.8128L16.3842 13.3842H14.6699V19.8128H12.5271V13.3842H10.8128V11.2414H12.5271V9.95564C12.5271 8.24135 13.3842 6.95564 15.0985 6.95564C16.3414 6.95564 16.8128 7.38421 16.8128 7.38421V9.09849Z" fill="url(#paint0_linear_4013_4905)"/>
</g>
<defs>
<linearGradient id="paint0_linear_4013_4905" x1="11.6699" y1="2.66992" x2="11.6699" y2="20.6699" gradientUnits="userSpaceOnUse">
<stop stop-color="#22B2FB"/>
<stop offset="1" stop-color="#0276B0"/>
</linearGradient>
</defs>
</svg>
