<svg width="48" height="48" viewBox="0 0 48 48" fill="none" xmlns="http://www.w3.org/2000/svg">
<g id="Icon">
<path id="Vector" d="M30.9462 33.0538L33.0538 30.9462L25.4999 23.3918V14H22.5V24.6077L30.9462 33.0538ZM24.0033 42.9999C21.3754 42.9999 18.9054 42.5012 16.5931 41.5039C14.2808 40.5066 12.2694 39.1531 10.559 37.4434C8.84853 35.7337 7.49442 33.7232 6.49665 31.412C5.49888 29.1007 5 26.6312 5 24.0033C5 21.3754 5.49867 18.9054 6.496 16.5931C7.49333 14.2808 8.84683 12.2694 10.5565 10.559C12.2662 8.84854 14.2767 7.49442 16.588 6.49665C18.8992 5.49889 21.3687 5 23.9966 5C26.6245 5 29.0945 5.49867 31.4068 6.496C33.7191 7.49334 35.7305 8.84683 37.4409 10.5565C39.1514 12.2662 40.5055 14.2767 41.5033 16.588C42.501 18.8992 42.9999 21.3687 42.9999 23.9966C42.9999 26.6245 42.5012 29.0945 41.5039 31.4068C40.5066 33.7191 39.1531 35.7305 37.4434 37.4409C35.7337 39.1514 33.7232 40.5055 31.412 41.5033C29.1007 42.501 26.6312 42.9999 24.0033 42.9999ZM24 40C28.4333 40 32.2083 38.4416 35.325 35.325C38.4416 32.2083 40 28.4333 40 24C40 19.5666 38.4416 15.7916 35.325 12.675C32.2083 9.55828 28.4333 7.99995 24 7.99995C19.5666 7.99995 15.7916 9.55828 12.675 12.675C9.55828 15.7916 7.99995 19.5666 7.99995 24C7.99995 28.4333 9.55828 32.2083 12.675 35.325C15.7916 38.4416 19.5666 40 24 40Z" fill="url(#paint0_linear_4063_1287)"/>
</g>
<defs>
<linearGradient id="paint0_linear_4063_1287" x1="24" y1="5" x2="24" y2="42.9999" gradientUnits="userSpaceOnUse">
<stop stop-color="#21B1F9"/>
<stop offset="1" stop-color="#0479B4"/>
</linearGradient>
</defs>
</svg>
