<svg width="48" height="48" viewBox="0 0 48 48" fill="none" xmlns="http://www.w3.org/2000/svg">
<g id="Icon">
<path id="Vector" d="M22 28H26V16H22V28ZM24 36C24.5667 36 25.0417 35.8083 25.425 35.425C25.8083 35.0417 26 34.5667 26 34C26 33.4333 25.8083 32.9583 25.425 32.575C25.0417 32.1917 24.5667 32 24 32C23.4333 32 22.9583 32.1917 22.575 32.575C22.1917 32.9583 22 33.4333 22 34C22 34.5667 22.1917 35.0417 22.575 35.425C22.9583 35.8083 23.4333 36 24 36ZM16 44C15.4333 44 14.9583 43.8083 14.575 43.425C14.1917 43.0417 14 42.5667 14 42V10C14 9.43333 14.1917 8.95833 14.575 8.575C14.9583 8.19167 15.4333 8 16 8H20V4H28V8H32C32.5667 8 33.0417 8.19167 33.425 8.575C33.8083 8.95833 34 9.43333 34 10V42C34 42.5667 33.8083 43.0417 33.425 43.425C33.0417 43.8083 32.5667 44 32 44H16ZM18 40H30V12H18V40Z" fill="url(#paint0_linear_4063_455)"/>
</g>
<defs>
<linearGradient id="paint0_linear_4063_455" x1="24" y1="4" x2="24" y2="44" gradientUnits="userSpaceOnUse">
<stop stop-color="#24B6FF"/>
<stop offset="1" stop-color="#0071AA"/>
</linearGradient>
</defs>
</svg>
