<svg width="40" height="40" viewBox="0 0 40 40" fill="none" xmlns="http://www.w3.org/2000/svg">
<g id="Icon">
<path id="Vector" d="M5 33.3327V29.9993H9.58333L8.91667 29.416C7.47222 28.1382 6.45833 26.6799 5.875 25.041C5.29167 23.4021 5 21.7493 5 20.0827C5 16.9993 5.92361 14.2563 7.77083 11.8535C9.61806 9.45074 12.0278 7.86046 15 7.08268V10.5827C13 11.3049 11.3889 12.5341 10.1667 14.2702C8.94444 16.0063 8.33333 17.9438 8.33333 20.0827C8.33333 21.3327 8.56944 22.548 9.04167 23.7285C9.51389 24.9091 10.25 25.9993 11.25 26.9993L11.6667 27.416V23.3327H15V33.3327H5ZM34.875 18.3327H31.5C31.3611 17.3605 31.0625 16.4299 30.6042 15.541C30.1458 14.6521 29.5278 13.8049 28.75 12.9993L28.3333 12.5827V16.666H25V6.66602H35V9.99935H30.4167L31.0833 10.5827C32.2222 11.7493 33.0972 12.9855 33.7083 14.291C34.3194 15.5966 34.7083 16.9438 34.875 18.3327ZM28.3333 38.3327L27.8333 35.8327C27.5 35.6938 27.1875 35.548 26.8958 35.3952C26.6042 35.2424 26.3056 35.0549 26 34.8327L23.5833 35.5827L21.9167 32.7493L23.8333 31.0827C23.7778 30.6938 23.75 30.3327 23.75 29.9993C23.75 29.666 23.7778 29.3049 23.8333 28.916L21.9167 27.2493L23.5833 24.416L26 25.166C26.3056 24.9438 26.6042 24.7563 26.8958 24.6035C27.1875 24.4507 27.5 24.3049 27.8333 24.166L28.3333 21.666H31.6667L32.1667 24.166C32.5 24.3049 32.8125 24.4577 33.1042 24.6243C33.3958 24.791 33.6944 24.9993 34 25.2493L36.4167 24.416L38.0833 27.3327L36.1667 28.9993C36.2222 29.3327 36.25 29.6799 36.25 30.041C36.25 30.4021 36.2222 30.7493 36.1667 31.0827L38.0833 32.7493L36.4167 35.5827L34 34.8327C33.6944 35.0549 33.3958 35.2424 33.1042 35.3952C32.8125 35.548 32.5 35.6938 32.1667 35.8327L31.6667 38.3327H28.3333ZM30 33.3327C30.9167 33.3327 31.7014 33.0063 32.3542 32.3535C33.0069 31.7007 33.3333 30.916 33.3333 29.9993C33.3333 29.0827 33.0069 28.298 32.3542 27.6452C31.7014 26.9924 30.9167 26.666 30 26.666C29.0833 26.666 28.2986 26.9924 27.6458 27.6452C26.9931 28.298 26.6667 29.0827 26.6667 29.9993C26.6667 30.916 26.9931 31.7007 27.6458 32.3535C28.2986 33.0063 29.0833 33.3327 30 33.3327Z" fill="url(#paint0_linear_4063_229)"/>
</g>
<defs>
<linearGradient id="paint0_linear_4063_229" x1="21.5417" y1="6.66602" x2="21.5417" y2="38.3327" gradientUnits="userSpaceOnUse">
<stop stop-color="#24B6FF"/>
<stop offset="1" stop-color="#0071AA"/>
</linearGradient>
</defs>
</svg>
