<?xml version="1.0" encoding="UTF-8"?>
<svg xmlns="http://www.w3.org/2000/svg" width="196" height="35" viewBox="0 0 196 35" fill="none">
  <g clip-path="url(#clip0_5208_20379)">
    <path d="M164.914 11.3427C159.15 11.3427 157.298 13.1806 157.298 17.7834V22.3548C157.298 26.9576 159.15 28.7641 164.914 28.7641H174.383C174.763 28.7641 174.953 28.5756 174.953 28.1986V25.528C174.953 25.151 174.763 24.9625 174.383 24.9625H165.357C162.571 24.9625 161.874 24.1299 161.874 21.4751V18.6474C161.874 15.9769 162.571 15.16 165.357 15.16H174.383C174.763 15.16 174.953 15.0029 174.953 14.5945V11.9239C174.953 11.5469 174.763 11.3584 174.383 11.3584H164.914V11.3427ZM150.996 11.3427C150.521 11.3427 150.299 11.594 150.299 12.0653V28.0729C150.299 28.5442 150.521 28.7641 150.996 28.7641H154.131C154.606 28.7641 154.828 28.5442 154.828 28.0729V12.0653C154.828 11.594 154.606 11.3427 154.131 11.3427H150.996ZM134.402 11.3427C128.639 11.3427 126.786 13.1806 126.786 17.7834V28.0729C126.786 28.5442 127.039 28.7641 127.514 28.7641H130.649C131.124 28.7641 131.346 28.5442 131.346 28.0729V18.8673C131.346 16.1968 132.09 15.3799 134.83 15.3799H139.944C142.699 15.3799 143.237 16.2125 143.237 18.8673V28.0729C143.237 28.5442 143.459 28.7641 143.934 28.7641H147.069C147.544 28.7641 147.766 28.5442 147.766 28.0729V17.7834C147.766 13.1806 145.913 11.3427 140.15 11.3427H134.37H134.402ZM104.286 6.45712C103.811 6.45712 103.589 6.67704 103.589 7.14832V28.0729C103.589 28.5442 103.811 28.7641 104.286 28.7641H107.421C107.896 28.7641 108.118 28.5442 108.118 28.0729V15.3642H116.462C119.217 15.3642 119.756 16.1968 119.756 18.8516V28.0572C119.756 28.5285 119.977 28.7484 120.452 28.7484H123.588C124.063 28.7484 124.284 28.5285 124.284 28.0572V17.7677C124.284 13.1649 122.432 11.327 116.668 11.327H108.102V7.13261C108.102 6.66133 107.88 6.44141 107.405 6.44141H104.27L104.286 6.45712ZM91.0807 11.3427C85.3171 11.3427 83.4646 13.1806 83.4646 17.7834V22.3548C83.4646 26.9576 85.3171 28.7641 91.0807 28.7641H100.549C100.929 28.7641 101.119 28.5756 101.119 28.1986V25.528C101.119 25.151 100.929 24.9625 100.549 24.9625H91.524C88.7372 24.9625 88.0405 24.1299 88.0405 21.4751V18.6474C88.0405 15.9769 88.7372 15.16 91.524 15.16H100.549C100.929 15.16 101.119 15.0029 101.119 14.5945V11.9239C101.119 11.5469 100.929 11.3584 100.549 11.3584H91.0807V11.3427ZM69.4833 11.3427C63.7198 11.3427 61.8672 13.1806 61.8672 17.7834V22.3548C61.8672 26.9576 63.7198 28.7641 69.4833 28.7641H79.8861C80.2661 28.7641 80.4561 28.5756 80.4561 28.1986V25.528C80.4561 25.151 80.2661 24.9625 79.8861 24.9625H69.9425C67.1557 24.9625 66.4273 24.1299 66.4273 22.1349V21.3651H79.1894C80.4403 21.3651 81.0103 20.9252 81.0103 19.5586V16.5424C81.0103 12.6937 79.8544 11.327 75.4685 11.327H69.4833V11.3427ZM66.4115 17.6892C66.4115 15.6627 67.1399 14.8615 69.9266 14.8615H74.5659C76.0385 14.8615 76.5135 15.3799 76.5135 16.6681V18.0033C76.5135 18.4118 76.3552 18.5375 75.9752 18.5375H66.4115V17.6735V17.6892ZM182.442 11.3427C178.674 11.3427 177.423 13.055 177.423 15.6941V17.0922C177.423 19.8884 178.832 21.3808 182.41 21.3808H189.757C191.071 21.3808 191.546 21.8835 191.546 22.7161V23.5801C191.546 24.664 191.071 25.1039 189.757 25.1039H177.993C177.613 25.1039 177.423 25.2924 177.423 25.6694V28.2143C177.423 28.5913 177.613 28.7798 177.993 28.7798H190.976C194.761 28.7798 195.996 27.1304 195.996 24.3341V22.559C195.996 19.8256 194.587 18.3018 191.008 18.3018H183.63C182.315 18.3018 181.872 17.7991 181.872 16.9351V16.4638C181.872 15.537 182.315 15.0343 183.63 15.0343H194.666C195.046 15.0343 195.236 14.8458 195.236 14.4688V11.9239C195.236 11.5469 195.046 11.3584 194.666 11.3584H182.442V11.3427Z" fill="#24B6FF"></path>
    <path d="M46.1758 22.4646C46.1758 26.9731 47.5533 28.7797 52.6677 28.7797H58.8112C59.2229 28.7797 59.3812 28.5911 59.3812 28.2141V25.6064C59.3812 25.2294 59.2229 25.0409 58.8112 25.0409H53.4435C51.3376 25.0409 50.7518 24.2083 50.7518 22.4646V15.097H58.6212C59.0329 15.097 59.1912 14.9085 59.1912 14.5315V11.9237C59.1912 11.5467 59.0329 11.3582 58.6212 11.3582H50.7518V7.16386C50.7518 6.69258 50.4984 6.47266 50.0551 6.47266H46.8883C46.445 6.47266 46.1916 6.69258 46.1916 7.16386C46.1916 13.9188 46.1916 13.7303 46.1916 22.4803L46.1758 22.4646Z" fill="#24B6FF"></path>
    <path d="M35.0123 15.9766C34.6006 15.9766 34.3789 16.1808 34.3789 16.6049V19.1027C34.3789 19.5111 34.5847 19.7311 35.0123 19.7311H39.6516C40.0791 19.7311 40.2849 19.5268 40.2849 19.1027V16.6049C40.2849 16.1808 40.0791 15.9766 39.6516 15.9766H35.0123Z" fill="#24B6FF"></path>
    <path d="M34.5531 8.41578e-05C33.7297 8.41578e-05 33.3497 0.282849 32.9064 0.706996L24.5144 9.06427L24.4511 9.12711L24.3878 9.18994L24.3719 9.20565L24.3244 9.26849L24.2769 9.33132L24.2611 9.34703L24.2136 9.40987L24.1978 9.42558L24.1503 9.48842L24.1344 9.50413L24.0869 9.56696V9.58267L24.0553 9.64551L24.0394 9.67693L24.0078 9.72405L23.9761 9.77118L23.9603 9.78689L23.9286 9.83402L23.9128 9.84973L23.8811 9.91256L23.8653 9.92827L23.8336 10.0068V10.0225L23.8178 10.0697L23.8019 10.1168L23.7861 10.1325L23.7544 10.1953L23.7386 10.2267L23.7069 10.3053V10.321L23.6752 10.3995V10.4153L23.6594 10.4938L23.6436 10.5723L23.6277 10.6038V10.6352L23.6119 10.7137V10.7294L23.5961 10.8237V10.8394L23.5802 10.9337V10.9494L23.5644 11.0436V11.0593L23.5486 11.1693L23.5327 11.2793L23.5169 11.3892L23.5011 11.4992V11.5149V11.6249V11.6406V11.7505V11.7662V11.8605V11.9548V11.9862V12.0176V12.1118C23.5011 12.2689 23.5169 12.426 23.5327 12.5831V12.5988V12.6617L23.5486 12.7245V12.7402L23.5644 12.8345V12.8659L23.5802 12.9758C23.5961 13.0544 23.6119 13.1487 23.6277 13.2272C23.6752 13.4471 23.7386 13.6671 23.8019 13.887L23.8494 14.0127V14.0284C23.8811 14.1226 23.9128 14.2012 23.9444 14.2954C24.2611 15.128 24.7519 15.9763 25.417 16.7775C20.2076 11.4049 15.0141 6.04811 9.80479 0.691287C9.37727 0.251431 8.98143 -0.015625 8.15807 -0.015625H1.112C0.193637 -0.015625 0.193637 0.848379 0.605318 1.30394C5.81466 6.62935 11.0082 11.9548 16.2017 17.2802L0.272807 33.0836C-0.186375 33.5391 -0.138874 34.4031 0.77949 34.4031H7.46138C8.28474 34.4031 8.66475 34.1204 9.1081 33.6962L17.5 25.339C18.9726 23.878 18.9726 20.7519 16.8667 17.9714C22.2027 23.4539 27.5387 28.9364 32.8747 34.4031C33.2389 34.7802 33.6822 34.9687 34.2206 34.9687H41.1083C41.9159 34.9687 42.3434 33.9947 41.7733 33.4135L25.7495 17.1388L25.7812 17.1074L41.71 1.30394C42.1692 0.848379 42.1217 -0.015625 41.2033 -0.015625H34.5214L34.5531 8.41578e-05Z" fill="#24B6FF"></path>
  </g>
  <defs>
    <clipPath id="clip0_5208_20379">
      <rect width="196" height="35" fill="white"></rect>
    </clipPath>
  </defs>
</svg>
