<?xml version="1.0" encoding="UTF-8"?>
<svg xmlns="http://www.w3.org/2000/svg" width="40" height="40" viewBox="0 0 40 40" fill="none">
  <g id="Icon">
    <path id="Vector" d="M31.5003 34.9987L22.3753 25.8737L25.8753 22.3737L35.0003 31.4987L31.5003 34.9987ZM8.50033 34.9987L5.00033 31.4987L16.5003 19.9987L13.667 17.1654L12.5003 18.332L10.3753 16.207V19.6237L9.20866 20.7904L4.16699 15.7487L5.33366 14.582H8.75033L6.66699 12.4987L12.5837 6.58203C13.1392 6.02648 13.7364 5.6237 14.3753 5.3737C15.0142 5.1237 15.667 4.9987 16.3337 4.9987C17.0003 4.9987 17.6531 5.1237 18.292 5.3737C18.9309 5.6237 19.5281 6.02648 20.0837 6.58203L16.2503 10.4154L18.3337 12.4987L17.167 13.6654L20.0003 16.4987L23.7503 12.7487C23.6392 12.4431 23.5489 12.1237 23.4795 11.7904C23.41 11.457 23.3753 11.1237 23.3753 10.7904C23.3753 9.15148 23.9378 7.76953 25.0628 6.64453C26.1878 5.51953 27.5698 4.95703 29.2087 4.95703C29.6253 4.95703 30.0212 4.9987 30.3962 5.08203C30.7712 5.16536 31.1531 5.29036 31.542 5.45703L27.417 9.58203L30.417 12.582L34.542 8.45703C34.7364 8.84592 34.8684 9.22786 34.9378 9.60286C35.0073 9.97786 35.042 10.3737 35.042 10.7904C35.042 12.4293 34.4795 13.8112 33.3545 14.9362C32.2295 16.0612 30.8475 16.6237 29.2087 16.6237C28.8753 16.6237 28.542 16.5959 28.2087 16.5404C27.8753 16.4848 27.5559 16.3876 27.2503 16.2487L8.50033 34.9987Z" fill="url(#paint0_linear_4063_643)"></path>
  </g>
  <defs>
    <linearGradient id="paint0_linear_4063_643" x1="19.6045" y1="4.95703" x2="19.6045" y2="34.9987" gradientUnits="userSpaceOnUse">
      <stop stop-color="#24B6FF"></stop>
      <stop offset="1" stop-color="#0071AA"></stop>
    </linearGradient>
  </defs>
</svg>
