<?xml version="1.0" encoding="UTF-8"?>
<svg xmlns="http://www.w3.org/2000/svg" width="48" height="48" viewBox="0 0 48 48" fill="none">
  <g id="Icon">
    <path id="Vector" d="M23.5 35.3L26.35 32.5L24.45 30.6C24.2833 30.4333 24.1667 30.2583 24.1 30.075C24.0333 29.8917 24 29.7 24 29.5C24 29.2667 24.0333 29.0583 24.1 28.875C24.1667 28.6917 24.2833 28.5167 24.45 28.35L26.35 26.45C26.8833 25.9167 27.2917 25.3167 27.575 24.65C27.8583 23.9833 28 23.2833 28 22.55C28 21.7833 27.8583 21.0583 27.575 20.375C27.2917 19.6917 26.8833 19.0833 26.35 18.55L24.45 16.65L21.65 19.5L23.5 21.35C23.6667 21.5167 23.7917 21.6917 23.875 21.875C23.9583 22.0583 24 22.2667 24 22.5C24 22.7 23.9583 22.8917 23.875 23.075C23.7917 23.2583 23.6667 23.4333 23.5 23.6L21.65 25.5C21.1167 26.0333 20.7083 26.6333 20.425 27.3C20.1417 27.9667 20 28.6833 20 29.45C20 30.2167 20.1417 30.9417 20.425 31.625C20.7083 32.3083 21.1167 32.9167 21.65 33.45L23.5 35.3ZM16 44C15.4333 44 14.9583 43.8083 14.575 43.425C14.1917 43.0417 14 42.5667 14 42V10C14 9.43333 14.1917 8.95833 14.575 8.575C14.9583 8.19167 15.4333 8 16 8H20V4H28V8H32C32.5667 8 33.0417 8.19167 33.425 8.575C33.8083 8.95833 34 9.43333 34 10V42C34 42.5667 33.8083 43.0417 33.425 43.425C33.0417 43.8083 32.5667 44 32 44H16ZM18 40H30V12H18V40Z" fill="url(#paint0_linear_4063_1331)"></path>
  </g>
  <defs>
    <linearGradient id="paint0_linear_4063_1331" x1="24" y1="4" x2="24" y2="44" gradientUnits="userSpaceOnUse">
      <stop stop-color="#24B6FF"></stop>
      <stop offset="1" stop-color="#0071AA"></stop>
    </linearGradient>
  </defs>
</svg>
