<?xml version="1.0" encoding="UTF-8"?>
<svg xmlns="http://www.w3.org/2000/svg" width="40" height="40" viewBox="0 0 40 40" fill="none">
  <g id="Icon">
    <path id="Vector" d="M16.6663 19.9993C14.833 19.9993 13.2636 19.3466 11.958 18.041C10.6525 16.7355 9.99968 15.166 9.99968 13.3327C9.99968 11.4993 10.6525 9.9299 11.958 8.62435C13.2636 7.31879 14.833 6.66602 16.6663 6.66602C18.4997 6.66602 20.0691 7.31879 21.3747 8.62435C22.6802 9.9299 23.333 11.4993 23.333 13.3327C23.333 15.166 22.6802 16.7355 21.3747 18.041C20.0691 19.3466 18.4997 19.9993 16.6663 19.9993ZM3.33301 33.3327V28.666C3.33301 27.7493 3.56912 26.8882 4.04134 26.0827C4.51356 25.2771 5.16634 24.666 5.99967 24.2493C7.41634 23.5271 9.01356 22.916 10.7913 22.416C12.5691 21.916 14.5275 21.666 16.6663 21.666H17.2497C17.4163 21.666 17.583 21.6938 17.7497 21.7493C17.5275 22.2493 17.34 22.7702 17.1872 23.3118C17.0344 23.8535 16.9163 24.416 16.833 24.9993H16.6663C14.6941 24.9993 12.9233 25.2493 11.3538 25.7493C9.7844 26.2493 8.49968 26.7493 7.49967 27.2493C7.24968 27.3882 7.04829 27.5827 6.89551 27.8327C6.74273 28.0827 6.66634 28.3605 6.66634 28.666V29.9993H17.1663C17.333 30.5827 17.5552 31.1591 17.833 31.7285C18.1108 32.298 18.4163 32.8327 18.7497 33.3327H3.33301ZM26.6663 34.9993L26.1663 32.4993C25.833 32.3605 25.5205 32.2146 25.2288 32.0618C24.9372 31.9091 24.6386 31.7216 24.333 31.4993L21.9163 32.2493L20.2497 29.416L22.1663 27.7493C22.1108 27.3605 22.083 26.9993 22.083 26.666C22.083 26.3327 22.1108 25.9716 22.1663 25.5827L20.2497 23.916L21.9163 21.0827L24.333 21.8327C24.6386 21.6105 24.9372 21.423 25.2288 21.2702C25.5205 21.1174 25.833 20.9716 26.1663 20.8327L26.6663 18.3327H29.9997L30.4997 20.8327C30.833 20.9716 31.1455 21.1243 31.4372 21.291C31.7288 21.4577 32.0275 21.666 32.333 21.916L34.7497 21.0827L36.4163 23.9993L34.4997 25.666C34.5552 25.9993 34.583 26.3466 34.583 26.7077C34.583 27.0688 34.5552 27.416 34.4997 27.7493L36.4163 29.416L34.7497 32.2493L32.333 31.4993C32.0275 31.7216 31.7288 31.9091 31.4372 32.0618C31.1455 32.2146 30.833 32.3605 30.4997 32.4993L29.9997 34.9993H26.6663ZM28.333 29.9993C29.2497 29.9993 30.0344 29.673 30.6872 29.0202C31.34 28.3674 31.6663 27.5827 31.6663 26.666C31.6663 25.7493 31.34 24.9646 30.6872 24.3118C30.0344 23.6591 29.2497 23.3327 28.333 23.3327C27.4163 23.3327 26.6316 23.6591 25.9788 24.3118C25.3261 24.9646 24.9997 25.7493 24.9997 26.666C24.9997 27.5827 25.3261 28.3674 25.9788 29.0202C26.6316 29.673 27.4163 29.9993 28.333 29.9993ZM16.6663 16.666C17.583 16.666 18.3677 16.3396 19.0205 15.6868C19.6733 15.0341 19.9997 14.2493 19.9997 13.3327C19.9997 12.416 19.6733 11.6313 19.0205 10.9785C18.3677 10.3257 17.583 9.99935 16.6663 9.99935C15.7497 9.99935 14.965 10.3257 14.3122 10.9785C13.6594 11.6313 13.333 12.416 13.333 13.3327C13.333 14.2493 13.6594 15.0341 14.3122 15.6868C14.965 16.3396 15.7497 16.666 16.6663 16.666Z" fill="url(#paint0_linear_4063_726)"></path>
  </g>
  <defs>
    <linearGradient id="paint0_linear_4063_726" x1="19.8747" y1="6.66602" x2="19.8747" y2="34.9993" gradientUnits="userSpaceOnUse">
      <stop stop-color="#24B6FF"></stop>
      <stop offset="1" stop-color="#0071AA"></stop>
    </linearGradient>
  </defs>
</svg>
