<?xml version="1.0" encoding="UTF-8"?>
<svg xmlns="http://www.w3.org/2000/svg" width="40" height="40" viewBox="0 0 40 40" fill="none">
  <g id="Icon">
    <path id="Vector" d="M21.6667 35C19.6111 35 17.6875 34.6181 15.8958 33.8542C14.1042 33.0903 12.5278 32.0417 11.1667 30.7083L13.5417 28.3333C14.5972 29.3611 15.8194 30.1736 17.2083 30.7708C18.5972 31.3681 20.0833 31.6667 21.6667 31.6667C24.8889 31.6667 27.6389 30.5278 29.9167 28.25C32.1944 25.9722 33.3333 23.2222 33.3333 20C33.3333 16.7778 32.1944 14.0278 29.9167 11.75C27.6389 9.47222 24.8889 8.33333 21.6667 8.33333C18.4444 8.33333 15.6944 9.47222 13.4167 11.75C11.1389 14.0278 10 16.7778 10 20V20.2917L13.0417 17.25L15.4167 19.5833L8.33333 26.6667L1.25 19.5833L3.625 17.25L6.66667 20.3333V20C6.66667 17.9167 7.0625 15.9653 7.85417 14.1458C8.64583 12.3264 9.71528 10.7431 11.0625 9.39583C12.4097 8.04861 13.9931 6.97917 15.8125 6.1875C17.6319 5.39583 19.5833 5 21.6667 5C23.75 5 25.7014 5.39583 27.5208 6.1875C29.3403 6.97917 30.9236 8.04861 32.2708 9.39583C33.6181 10.7431 34.6875 12.3264 35.4792 14.1458C36.2708 15.9653 36.6667 17.9167 36.6667 20C36.6667 24.1667 35.2083 27.7083 32.2917 30.625C29.375 33.5417 25.8333 35 21.6667 35ZM18.3333 26.6667C17.8611 26.6667 17.4653 26.5069 17.1458 26.1875C16.8264 25.8681 16.6667 25.4722 16.6667 25V20C16.6667 19.5278 16.8264 19.1319 17.1458 18.8125C17.4653 18.4931 17.8611 18.3333 18.3333 18.3333V16.6667C18.3333 15.75 18.6597 14.9653 19.3125 14.3125C19.9653 13.6597 20.75 13.3333 21.6667 13.3333C22.5833 13.3333 23.3681 13.6597 24.0208 14.3125C24.6736 14.9653 25 15.75 25 16.6667V18.3333C25.4722 18.3333 25.8681 18.4931 26.1875 18.8125C26.5069 19.1319 26.6667 19.5278 26.6667 20V25C26.6667 25.4722 26.5069 25.8681 26.1875 26.1875C25.8681 26.5069 25.4722 26.6667 25 26.6667H18.3333ZM20 18.3333H23.3333V16.6667C23.3333 16.1944 23.1736 15.7986 22.8542 15.4792C22.5347 15.1597 22.1389 15 21.6667 15C21.1944 15 20.7986 15.1597 20.4792 15.4792C20.1597 15.7986 20 16.1944 20 16.6667V18.3333Z" fill="url(#paint0_linear_4063_784)"></path>
  </g>
  <defs>
    <linearGradient id="paint0_linear_4063_784" x1="18.9583" y1="5" x2="18.9583" y2="35" gradientUnits="userSpaceOnUse">
      <stop stop-color="#24B6FF"></stop>
      <stop offset="1" stop-color="#0071AA"></stop>
    </linearGradient>
  </defs>
</svg>
