<?xml version="1.0" encoding="UTF-8"?>
<svg xmlns="http://www.w3.org/2000/svg" width="48" height="48" viewBox="0 0 48 48" fill="none">
  <g id="Icon">
    <path id="Vector" d="M15.8076 40H32.1923V34C32.1923 31.723 31.3961 29.7756 29.8038 28.1577C28.2115 26.5397 26.2769 25.7307 24 25.7307C21.723 25.7307 19.7884 26.5397 18.1961 28.1577C16.6038 29.7756 15.8076 31.723 15.8076 34V40ZM9 42.9999V40H12.8077V34C12.8077 31.7487 13.4237 29.6993 14.6558 27.8519C15.8879 26.0044 17.5206 24.7205 19.554 24C17.5206 23.2667 15.8879 21.9795 14.6558 20.1385C13.4237 18.2974 12.8077 16.2513 12.8077 14V7.99995H9V5H38.9999V7.99995H35.1922V14C35.1922 16.2513 34.5762 18.2974 33.3441 20.1385C32.112 21.9795 30.4793 23.2667 28.446 24C30.4793 24.7205 32.112 26.0044 33.3441 27.8519C34.5762 29.6993 35.1922 31.7487 35.1922 34V40H38.9999V42.9999H9Z" fill="url(#paint0_linear_4063_1297)"></path>
  </g>
  <defs>
    <linearGradient id="paint0_linear_4063_1297" x1="24" y1="5" x2="24" y2="42.9999" gradientUnits="userSpaceOnUse">
      <stop stop-color="#23B4FC"></stop>
      <stop offset="1" stop-color="#0275AF"></stop>
    </linearGradient>
  </defs>
</svg>
