<?xml version="1.0" encoding="UTF-8"?>
<svg xmlns="http://www.w3.org/2000/svg" width="40" height="40" viewBox="0 0 40 40" fill="none">
  <g id="Icon">
    <path id="Vector" d="M15 35C13.1667 35 11.5972 34.3472 10.2917 33.0417C8.98611 31.7361 8.33333 30.1667 8.33333 28.3333V14.7083C7.36111 14.3472 6.5625 13.7431 5.9375 12.8958C5.3125 12.0486 5 11.0833 5 10C5 8.61111 5.48611 7.43056 6.45833 6.45833C7.43056 5.48611 8.61111 5 10 5C11.3889 5 12.5694 5.48611 13.5417 6.45833C14.5139 7.43056 15 8.61111 15 10C15 11.0833 14.6875 12.0486 14.0625 12.8958C13.4375 13.7431 12.6389 14.3472 11.6667 14.7083V28.3333C11.6667 29.25 11.9931 30.0347 12.6458 30.6875C13.2986 31.3403 14.0833 31.6667 15 31.6667C15.9167 31.6667 16.7014 31.3403 17.3542 30.6875C18.0069 30.0347 18.3333 29.25 18.3333 28.3333V11.6667C18.3333 9.83333 18.9861 8.26389 20.2917 6.95833C21.5972 5.65278 23.1667 5 25 5C26.8333 5 28.4028 5.65278 29.7083 6.95833C31.0139 8.26389 31.6667 9.83333 31.6667 11.6667V25.2917C32.6389 25.6528 33.4375 26.2569 34.0625 27.1042C34.6875 27.9514 35 28.9167 35 30C35 31.3889 34.5139 32.5694 33.5417 33.5417C32.5694 34.5139 31.3889 35 30 35C28.6111 35 27.4306 34.5139 26.4583 33.5417C25.4861 32.5694 25 31.3889 25 30C25 28.9167 25.3125 27.9444 25.9375 27.0833C26.5625 26.2222 27.3611 25.625 28.3333 25.2917V11.6667C28.3333 10.75 28.0069 9.96528 27.3542 9.3125C26.7014 8.65972 25.9167 8.33333 25 8.33333C24.0833 8.33333 23.2986 8.65972 22.6458 9.3125C21.9931 9.96528 21.6667 10.75 21.6667 11.6667V28.3333C21.6667 30.1667 21.0139 31.7361 19.7083 33.0417C18.4028 34.3472 16.8333 35 15 35ZM10 11.6667C10.4722 11.6667 10.8681 11.5069 11.1875 11.1875C11.5069 10.8681 11.6667 10.4722 11.6667 10C11.6667 9.52778 11.5069 9.13194 11.1875 8.8125C10.8681 8.49306 10.4722 8.33333 10 8.33333C9.52778 8.33333 9.13194 8.49306 8.8125 8.8125C8.49306 9.13194 8.33333 9.52778 8.33333 10C8.33333 10.4722 8.49306 10.8681 8.8125 11.1875C9.13194 11.5069 9.52778 11.6667 10 11.6667ZM30 31.6667C30.4722 31.6667 30.8681 31.5069 31.1875 31.1875C31.5069 30.8681 31.6667 30.4722 31.6667 30C31.6667 29.5278 31.5069 29.1319 31.1875 28.8125C30.8681 28.4931 30.4722 28.3333 30 28.3333C29.5278 28.3333 29.1319 28.4931 28.8125 28.8125C28.4931 29.1319 28.3333 29.5278 28.3333 30C28.3333 30.4722 28.4931 30.8681 28.8125 31.1875C29.1319 31.5069 29.5278 31.6667 30 31.6667Z" fill="url(#paint0_linear_4063_5620)"></path>
  </g>
  <defs>
    <linearGradient id="paint0_linear_4063_5620" x1="20" y1="5" x2="20" y2="35" gradientUnits="userSpaceOnUse">
      <stop stop-color="#24B6FF"></stop>
      <stop offset="1" stop-color="#0071AA"></stop>
    </linearGradient>
  </defs>
</svg>
